<?xml version="1.0" encoding="UTF-8"?>
<svg width="20px" height="20px" viewBox="0 0 20 20" version="1.1" xmlns="http://www.w3.org/2000/svg" xmlns:xlink="http://www.w3.org/1999/xlink">
    <!-- Generator: Sketch 50.1 (55044) - http://www.bohemiancoding.com/sketch -->
    <title>Artboard</title>
    <desc>Created with Sketch.</desc>
    <defs></defs>
    <g id="Artboard" stroke="none" stroke-width="1" fill="none" fill-rule="evenodd">
        <path d="M10,3 C5.45416667,3 1.54583333,5.81833333 0,9.81833333 C1.54583333,13.8183333 5.45416667,16.6366667 10,16.6366667 C14.5458333,16.6366667 18.4541667,13.8183333 20,9.81833333 C18.4541667,5.81833333 14.5458333,3 10,3 L10,3 Z M10,14.3633333 C7.45416667,14.3633333 5.45416667,12.3633333 5.45416667,9.8175 C5.45416667,7.27166667 7.45416667,5.27166667 10,5.27166667 C12.5458333,5.27166667 14.5458333,7.27166667 14.5458333,9.8175 C14.5458333,12.3633333 12.5458333,14.3633333 10,14.3633333 L10,14.3633333 Z M10,7.09083333 C8.45416667,7.09083333 7.2725,8.2725 7.2725,9.81833333 C7.2725,11.3641667 8.45416667,12.5458333 10,12.5458333 C11.5458333,12.5458333 12.7275,11.3641667 12.7275,9.81833333 C12.7275,8.2725 11.5458333,7.09083333 10,7.09083333 L10,7.09083333 Z" id="View" fill="#206E9F"></path>
    </g>
</svg>