<?xml version="1.0" encoding="UTF-8"?>
<!DOCTYPE svg PUBLIC "-//W3C//DTD SVG 1.1//EN" "http://www.w3.org/Graphics/SVG/1.1/DTD/svg11.dtd">
<svg width="64px" height="55px" viewBox="0 0 64 55" version="1.1" xmlns="http://www.w3.org/2000/svg" xmlns:xlink="http://www.w3.org/1999/xlink">
    <!-- Generator: Sketch 46.2 (44496) - http://www.bohemiancoding.com/sketch -->
    <title>Group 6</title>
    <desc>Created with Sketch.</desc>
    <defs></defs>
    <g id="Page-1" stroke="none" stroke-width="1" fill="none" fill-rule="evenodd">
        <g id="Desktop-HD" transform="translate(-849.000000, -408.000000)">
            <g id="Desktop">
                <g id="Group-6" transform="translate(845.000000, 400.000000)">
                    <g id="Group-3" transform="translate(4.000000, 8.000000)">
                        <g id="Folder" fill="#316EA0">
                            <path d="M25.5212308,0 L6.38030769,0 C2.87113846,0 0,3.0938992 0,6.87533156 L0,48.127321 C0,51.9087533 2.87113846,55.0026525 6.38030769,55.0026525 L57.4227692,55.0026525 C60.9319385,55.0026525 63.8030769,51.9087533 63.8030769,48.127321 L63.8030769,13.7506631 C63.8030769,9.96923077 60.9319385,6.87533156 57.4227692,6.87533156 L31.9015385,6.87533156 L25.5212308,0"></path>
                        </g>
                        <g id="Settings" transform="translate(18.000000, 17.000000)">
                            <path d="M24.2094813,15.3073058 C24.2094813,14.8898338 24.3507331,14.4723618 24.3507331,13.9157325 C24.3507331,13.3591032 24.3507331,12.9416312 24.2094813,12.5241593 L27.1757702,10.1584847 C27.458274,9.88017008 27.458274,9.60185543 27.3170221,9.32354078 L24.491985,4.4530344 C24.3507331,4.31387708 24.0682294,4.17471975 23.6444738,4.31387708 L20.1131774,5.70545033 C19.4069181,5.14882103 18.559407,4.73134905 17.7118959,4.31387708 L17.1468884,0.695786625 C17.2881403,0.27831465 16.8643847,0 16.581881,0 L10.9318067,0 C10.649303,0 10.2255475,0.27831465 10.2255475,0.5566293 L9.66054003,4.31387708 C8.81302889,4.59219173 8.10676961,5.14882103 7.25925847,5.70545033 L3.86921391,4.31387708 C3.44545834,4.17471975 3.16295463,4.31387708 2.88045092,4.59219173 L0.0554137877,9.46269811 C-0.0858380688,9.60185543 0.0554137877,10.0193274 0.337917501,10.2976421 L3.30420649,12.5241593 C3.30420649,12.9416312 3.16295463,13.3591032 3.16295463,13.9157325 C3.16295463,14.4723618 3.16295463,14.8898338 3.30420649,15.3073058 L0.337917501,17.6729803 C0.0554137877,17.9512949 0.0554137877,18.2296096 0.196665644,18.5079242 L3.02170277,23.3784306 C3.16295463,23.5175879 3.44545834,23.6567453 3.86921391,23.5175879 L7.40051033,22.1260147 C8.10676961,22.682644 8.95428075,23.100116 9.80179189,23.5175879 L10.3667993,27.1356784 C10.3667993,27.413993 10.649303,27.6923077 11.0730586,27.6923077 L16.7231329,27.6923077 C17.0056366,27.6923077 17.4293921,27.413993 17.4293921,27.1356784 L17.9943996,23.5175879 C18.8419107,23.100116 19.6894218,22.682644 20.3956811,22.1260147 L23.9269775,23.5175879 C24.2094813,23.6567453 24.6332368,23.5175879 24.7744887,23.2392733 L27.5995258,18.3687669 C27.7407777,18.0904523 27.7407777,17.6729803 27.458274,17.533823 L24.2094813,15.3073058 L24.2094813,15.3073058 Z" fill="#FFFFFF"></path>
                            <path d="M13.7568439,18.7862389 C11.0730586,18.7862389 8.81302889,16.5597217 8.81302889,13.9157325 C8.81302889,11.2717433 11.0730586,9.04522613 13.7568439,9.04522613 C16.4406291,9.04522613 18.7006588,11.2717433 18.7006588,13.9157325 C18.7006588,16.5597217 16.4406291,18.7862389 13.7568439,18.7862389 L13.7568439,18.7862389 Z" id="Path" fill="#316EA0"></path>
                        </g>
                    </g>
                </g>
            </g>
        </g>
    </g>
</svg>