<?xml version="1.0" encoding="UTF-8"?>
<svg width="92px" height="92px" viewBox="0 0 92 92" version="1.1" xmlns="http://www.w3.org/2000/svg" xmlns:xlink="http://www.w3.org/1999/xlink">
    <!-- Generator: Sketch 47 (45396) - http://www.bohemiancoding.com/sketch -->
    <title>Manage Folder</title>
    <desc>Created with Sketch.</desc>
    <defs></defs>
    <g id="Page-1" stroke="none" stroke-width="1" fill="none" fill-rule="evenodd">
        <g id="Manage-Folder">
            <g id="Folder-Icon" transform="translate(14.000000, 18.000000)">
                <path d="M25.5212308,3.55271368e-15 L6.38030769,3.55271368e-15 C2.87113846,3.55271368e-15 0,3.0938992 0,6.87533156 L0,48.127321 C0,51.9087533 2.87113846,55.0026525 6.38030769,55.0026525 L57.4227692,55.0026525 C60.9319385,55.0026525 63.8030769,51.9087533 63.8030769,48.127321 L63.8030769,13.7506631 C63.8030769,9.96923077 60.9319385,6.87533156 57.4227692,6.87533156 L31.9015385,6.87533156 L25.5212308,3.55271368e-15" id="Folder" fill="#316EA0"></path>
                <path d="M42.2094813,32.3073058 C42.2094813,31.8898338 42.3507331,31.4723618 42.3507331,30.9157325 C42.3507331,30.3591032 42.3507331,29.9416312 42.2094813,29.5241593 L45.1757702,27.1584847 C45.458274,26.8801701 45.458274,26.6018554 45.3170221,26.3235408 L42.491985,21.4530344 C42.3507331,21.3138771 42.0682294,21.1747198 41.6444738,21.3138771 L38.1131774,22.7054503 C37.4069181,22.148821 36.559407,21.7313491 35.7118959,21.3138771 L35.1468884,17.6957866 C35.2881403,17.2783147 34.8643847,17 34.581881,17 L28.9318067,17 C28.649303,17 28.2255475,17.2783147 28.2255475,17.5566293 L27.66054,21.3138771 C26.8130289,21.5921917 26.1067696,22.148821 25.2592585,22.7054503 L21.8692139,21.3138771 C21.4454583,21.1747198 21.1629546,21.3138771 20.8804509,21.5921917 L18.0554138,26.4626981 C17.9141619,26.6018554 18.0554138,27.0193274 18.3379175,27.2976421 L21.3042065,29.5241593 C21.3042065,29.9416312 21.1629546,30.3591032 21.1629546,30.9157325 C21.1629546,31.4723618 21.1629546,31.8898338 21.3042065,32.3073058 L18.3379175,34.6729803 C18.0554138,34.9512949 18.0554138,35.2296096 18.1966656,35.5079242 L21.0217028,40.3784306 C21.1629546,40.5175879 21.4454583,40.6567453 21.8692139,40.5175879 L25.4005103,39.1260147 C26.1067696,39.682644 26.9542807,40.100116 27.8017919,40.5175879 L28.3667993,44.1356784 C28.3667993,44.413993 28.649303,44.6923077 29.0730586,44.6923077 L34.7231329,44.6923077 C35.0056366,44.6923077 35.4293921,44.413993 35.4293921,44.1356784 L35.9943996,40.5175879 C36.8419107,40.100116 37.6894218,39.682644 38.3956811,39.1260147 L41.9269775,40.5175879 C42.2094813,40.6567453 42.6332368,40.5175879 42.7744887,40.2392733 L45.5995258,35.3687669 C45.7407777,35.0904523 45.7407777,34.6729803 45.458274,34.533823 L42.2094813,32.3073058 L42.2094813,32.3073058 Z" id="Settings" fill="#FFFFFF"></path>
                <path d="M31.7568439,35.7862389 C29.0730586,35.7862389 26.8130289,33.5597217 26.8130289,30.9157325 C26.8130289,28.2717433 29.0730586,26.0452261 31.7568439,26.0452261 C34.4406291,26.0452261 36.7006588,28.2717433 36.7006588,30.9157325 C36.7006588,33.5597217 34.4406291,35.7862389 31.7568439,35.7862389 L31.7568439,35.7862389 Z" id="Path" fill="#316EA0"></path>
            </g>
        </g>
    </g>
</svg>