<?xml version="1.0" encoding="UTF-8" standalone="no"?>
<svg width="18px" height="18px" viewBox="0 0 18 18" version="1.1" xmlns="http://www.w3.org/2000/svg" xmlns:xlink="http://www.w3.org/1999/xlink">
    <!-- Generator: Sketch 3.6.1 (26313) - http://www.bohemiancoding.com/sketch -->
    <title>Clock</title>
    <desc>Created with Sketch.</desc>
    <defs></defs>
    <g id="Final-Visuals" stroke="none" stroke-width="1" fill="none" fill-rule="evenodd">
        <g id="Banner-Time-Entry---Mobile" transform="translate(-889.000000, -650.000000)" fill="#869FB1">
            <g id="Group-11" transform="translate(752.000000, 260.000000)">
                <g id="Editable-Card" transform="translate(27.000000, 244.000000)">
                    <g id="Date-Picker-+-Label---Inactive" transform="translate(15.000000, 104.000000)">
                        <g id="Start-Date-Input">
                            <g id="Clock" transform="translate(95.000000, 42.000000)">
                                <path d="M0.305765213,6.67099173 C-0.975379901,11.453325 1.88844448,16.414949 6.67023611,17.6962392 C11.4520277,18.9775295 16.4130897,16.1133807 17.6942348,11.3310473 C18.9753799,6.54871403 16.1115555,1.58709009 11.3297639,0.305799851 C6.54797226,-0.975490394 1.58691033,1.88865841 0.305765213,6.67099173 L0.305765213,6.67099173 Z M15.9555378,10.8651918 C14.9301717,14.6910585 10.9622223,16.9828276 7.13603887,15.9573453 C3.30985548,14.931863 1.01909601,10.9634641 2.04446215,7.13684725 C3.0698283,3.3109806 7.03777774,1.01921146 10.8639611,2.04469375 C14.6901445,3.07017605 16.980904,7.03857499 15.9555378,10.8651918 L15.9555378,10.8651918 Z M4.76952082,7.40165724 L4.41998123,8.70620275 L9.63682213,10.1037693 L13.6302745,6.3274139 L12.6866676,5.32893772 L9.29103297,8.61243151 L4.7702709,7.40090707 L4.76952082,7.40165724 L4.76952082,7.40165724 Z"></path>
                            </g>
                        </g>
                    </g>
                </g>
            </g>
        </g>
    </g>
</svg>