<?xml version="1.0" encoding="UTF-8"?>
<svg width="92px" height="92px" viewBox="0 0 92 92" version="1.1" xmlns="http://www.w3.org/2000/svg" xmlns:xlink="http://www.w3.org/1999/xlink">
    <!-- Generator: Sketch 47 (45396) - http://www.bohemiancoding.com/sketch -->
    <title>Action Items</title>
    <desc>Created with Sketch.</desc>
    <defs></defs>
    <g id="Page-1" stroke="none" stroke-width="1" fill="none" fill-rule="evenodd">
        <g id="Action-Items">
            <g id="Group-2" transform="translate(26.000000, 15.000000)">
                <rect id="Rectangle" stroke="#316EA0" stroke-width="4" fill="#FFFFFF" x="0" y="5.65522682" width="40.3944773" height="50.0891519" rx="3"></rect>
                <rect id="Rectangle-2" fill="#FFFFFF" x="1.61577909" y="7.27100592" width="37.1629191" height="46.8575937"></rect>
                <path d="M7.27100592,26.6110738 L9.552486,26.6110738 L9.552486,24.2366864 L7.27100592,24.2366864 L7.27100592,26.6110738 Z M7.27100592,34.6899692 L9.552486,34.6899692 L9.552486,32.3155819 L7.27100592,32.3155819 L7.27100592,34.6899692 Z M7.27100592,18.5321783 L9.552486,18.5321783 L9.552486,16.1577909 L7.27100592,16.1577909 L7.27100592,18.5321783 Z M11.3104536,26.6110738 L32.6832882,26.6110738 L32.6832882,24.2366864 L11.3104536,24.2366864 L11.3104536,26.6110738 Z M11.3104536,34.6899692 L32.6832882,34.6899692 L32.6832882,32.3155819 L11.3104536,32.3155819 L11.3104536,34.6899692 Z M11.3104536,18.5321783 L32.6832882,18.5321783 L32.6832882,16.1577909 L11.3104536,16.1577909 L11.3104536,18.5321783 Z" id="List-View-CO" fill="#316EA0"></path>
                <path d="M50.2139327,52.1846154 C50.2139327,58.7093559 44.9232887,64 38.3985481,64 C31.8738076,64 26.5846154,58.7093559 26.5846154,52.1846154 C26.5846154,45.6598749 31.8738076,40.3692308 38.3985481,40.3692308 C44.9232887,40.3692308 50.2139327,45.6598749 50.2139327,52.1846154" id="Fill-6" fill="#FFFFFF"></path>
                <path d="M28.8883585,49.6358139 C27.4867639,54.8671756 30.6198367,60.2946622 35.8511985,61.6962569 C41.0825603,63.0978515 46.5100468,59.9647787 47.9116415,54.7334169 C49.3132361,49.5020551 46.1801633,44.0745686 40.9488015,42.6729739 C35.7174397,41.2713793 30.2899532,44.4044521 28.8883585,49.6358139 L28.8883585,49.6358139 Z M45.7977406,54.1670926 C44.7071862,58.2357581 40.4869718,60.6729685 36.4175363,59.5824066 C32.3481009,58.4918447 29.9117049,54.2716015 31.0022594,50.2021382 C32.0928138,46.1334727 36.3130282,43.6962622 40.3824637,44.7868241 C44.4518991,45.8773861 46.8882951,50.0976293 45.7977406,54.1670926 L45.7977406,54.1670926 Z M32.9299145,52.3313376 L37.2800426,56.5606838 L43.8700855,50.2183238 L42.5167502,48.9025641 L37.2800426,53.9291644 L34.2832498,51.0155779 L32.9299145,52.3313376 L32.9299145,52.3313376 Z" id="Clock-Copy" fill="#316EA0"></path>
                <path d="M27.1540653,9.69467456 L13.240412,9.69467456 C12.62103,9.69467456 12.1183432,9.13305203 12.1183432,8.44105285 L12.1183432,3.67729035 C12.1183432,2.98529117 12.62103,2.42366864 13.240412,2.42366864 L27.1540653,2.42366864 C27.7734473,2.42366864 28.2761341,2.98529117 28.2761341,3.67729035 L28.2761341,8.44105285 C28.2761341,9.13305203 27.7734473,9.69467456 27.1540653,9.69467456" id="Fill-4" fill="#316EA0"></path>
                <path d="M23.4287968,3.23155819 C23.4287968,5.01649827 21.9821787,6.46311637 20.1972387,6.46311637 C18.4122986,6.46311637 16.9656805,5.01649827 16.9656805,3.23155819 C16.9656805,1.4466181 18.4122986,0 20.1972387,0 C21.9821787,0 23.4287968,1.4466181 23.4287968,3.23155819" id="Fill-5" fill="#316EA0"></path>
            </g>
        </g>
    </g>
</svg>