<?xml version="1.0" encoding="UTF-8"?>
<svg width="92px" height="92px" viewBox="0 0 92 92" version="1.1" xmlns="http://www.w3.org/2000/svg" xmlns:xlink="http://www.w3.org/1999/xlink">
    <!-- Generator: Sketch 47 (45396) - http://www.bohemiancoding.com/sketch -->
    <title>Groups</title>
    <desc>Created with Sketch.</desc>
    <defs></defs>
    <g id="Page-1" stroke="none" stroke-width="1" fill="none" fill-rule="evenodd">
        <g id="Groups" fill="#316EA0">
            <g id="Group-Copy" transform="translate(14.000000, 14.000000)">
                <g id="group-icon">
                    <path d="M27.4408691,1.75209809 C26.2727935,0.584032696 24.8662677,0 23.221546,0 L5.97118198,0 C4.32646031,0 2.91993445,0.584032696 1.75185888,1.75209809 C0.584037787,2.92016348 0,4.3264226 0,5.9713844 L0,23.2215981 C0,24.8663054 0.584037787,26.2725645 1.75185888,27.4408844 C2.91993445,28.6089498 4.32646031,29.1929825 5.97118198,29.1929825 L23.221546,29.1929825 C24.8662677,29.1929825 26.272539,28.6089498 27.4408691,27.4408844 C28.6089447,26.2725645 29.1929825,24.8663054 29.1929825,23.2215981 L29.1929825,5.9713844 C29.192728,4.32667708 28.6086902,2.92016348 27.4408691,1.75209809 L27.4408691,1.75209809 Z M26.5387279,23.2215981 C26.5387279,24.1336561 26.2142625,24.9146567 25.5645682,25.5645998 C24.9148739,26.2142885 24.1341209,26.5387511 23.221546,26.5387511 L5.97118198,26.5387511 C5.05886151,26.5387511 4.27785412,26.2142885 3.62815979,25.5645998 C2.97846547,24.9146567 2.65374555,24.1336561 2.65374555,23.2215981 L2.65374555,5.9713844 C2.65374555,5.05907189 2.97846547,4.27807131 3.62815979,3.62838265 C4.27785412,2.97869399 5.05886151,2.6539769 5.97118198,2.6539769 L23.221546,2.6539769 C24.1341209,2.6539769 24.9148739,2.97869399 25.5645682,3.62838265 C26.2142625,4.27807131 26.5387279,5.05907189 26.5387279,5.9713844 L26.5387279,23.2215981 L26.5387279,23.2215981 Z" id="Shape"></path>
                </g>
                <g id="group-icon-copy-2" transform="translate(0.000000, 33.454545)">
                    <path d="M27.376968,1.7569378 C26.2116125,0.585645933 24.808362,0 23.1674703,0 L5.95727697,0 C4.31638535,0 2.91313484,0.585645933 1.74777935,1.7569378 C0.582677747,2.92822967 0,4.33837321 0,5.98787879 L0,23.2857416 C0,24.934992 0.582677747,26.3451356 1.74777935,27.5166826 C2.91313484,28.6879745 4.31638535,29.2736204 5.95727697,29.2736204 L23.1674703,29.2736204 C24.808362,29.2736204 26.2113586,28.6879745 27.376968,27.5166826 C28.5423234,26.3451356 29.1250012,24.934992 29.1250012,23.2857416 L29.1250012,5.98787879 C29.1247473,4.33862839 28.5420696,2.92822967 27.376968,1.7569378 L27.376968,1.7569378 Z M26.4769276,23.2857416 C26.4769276,24.200319 26.1532177,24.9834769 25.5050364,25.6352153 C24.856855,26.2866986 24.0779202,26.6120574 23.1674703,26.6120574 L5.95727697,26.6120574 C5.04708102,26.6120574 4.26789234,26.2866986 3.61971095,25.6352153 C2.97152956,24.9834769 2.64756582,24.200319 2.64756582,23.2857416 L2.64756582,5.98787879 C2.64756582,5.07304625 2.97152956,4.28988836 3.61971095,3.6384051 C4.26789234,2.98692185 5.04708102,2.66130781 5.95727697,2.66130781 L23.1674703,2.66130781 C24.0779202,2.66130781 24.856855,2.98692185 25.5050364,3.6384051 C26.1532177,4.28988836 26.4769276,5.07304625 26.4769276,5.98787879 L26.4769276,23.2857416 L26.4769276,23.2857416 Z" id="Shape"></path>
                </g>
                <g id="group-icon-copy" transform="translate(34.732164, 0.000000)">
                    <path d="M27.376968,1.7569378 C26.2116125,0.585645933 24.808362,0 23.1674703,0 L5.95727697,0 C4.31638535,0 2.91313484,0.585645933 1.74777935,1.7569378 C0.582677747,2.92822967 0,4.33837321 0,5.98787879 L0,23.2857416 C0,24.934992 0.582677747,26.3451356 1.74777935,27.5166826 C2.91313484,28.6879745 4.31638535,29.2736204 5.95727697,29.2736204 L23.1674703,29.2736204 C24.808362,29.2736204 26.2113586,28.6879745 27.376968,27.5166826 C28.5423234,26.3451356 29.1250012,24.934992 29.1250012,23.2857416 L29.1250012,5.98787879 C29.1247473,4.33862839 28.5420696,2.92822967 27.376968,1.7569378 L27.376968,1.7569378 Z M26.4769276,23.2857416 C26.4769276,24.200319 26.1532177,24.9834769 25.5050364,25.6352153 C24.856855,26.2866986 24.0779202,26.6120574 23.1674703,26.6120574 L5.95727697,26.6120574 C5.04708102,26.6120574 4.26789234,26.2866986 3.61971095,25.6352153 C2.97152956,24.9834769 2.64756582,24.200319 2.64756582,23.2857416 L2.64756582,5.98787879 C2.64756582,5.07304625 2.97152956,4.28988836 3.61971095,3.6384051 C4.26789234,2.98692185 5.04708102,2.66130781 5.95727697,2.66130781 L23.1674703,2.66130781 C24.0779202,2.66130781 24.856855,2.98692185 25.5050364,3.6384051 C26.1532177,4.28988836 26.4769276,5.07304625 26.4769276,5.98787879 L26.4769276,23.2857416 L26.4769276,23.2857416 Z" id="Shape"></path>
                </g>
                <g id="group-icon-copy-3" transform="translate(34.732164, 33.454545)">
                    <path d="M27.376968,1.7569378 C26.2116125,0.585645933 24.808362,0 23.1674703,0 L5.95727697,0 C4.31638535,0 2.91313484,0.585645933 1.74777935,1.7569378 C0.582677747,2.92822967 0,4.33837321 0,5.98787879 L0,23.2857416 C0,24.934992 0.582677747,26.3451356 1.74777935,27.5166826 C2.91313484,28.6879745 4.31638535,29.2736204 5.95727697,29.2736204 L23.1674703,29.2736204 C24.808362,29.2736204 26.2113586,28.6879745 27.376968,27.5166826 C28.5423234,26.3451356 29.1250012,24.934992 29.1250012,23.2857416 L29.1250012,5.98787879 C29.1247473,4.33862839 28.5420696,2.92822967 27.376968,1.7569378 L27.376968,1.7569378 Z M26.4769276,23.2857416 C26.4769276,24.200319 26.1532177,24.9834769 25.5050364,25.6352153 C24.856855,26.2866986 24.0779202,26.6120574 23.1674703,26.6120574 L5.95727697,26.6120574 C5.04708102,26.6120574 4.26789234,26.2866986 3.61971095,25.6352153 C2.97152956,24.9834769 2.64756582,24.200319 2.64756582,23.2857416 L2.64756582,5.98787879 C2.64756582,5.07304625 2.97152956,4.28988836 3.61971095,3.6384051 C4.26789234,2.98692185 5.04708102,2.66130781 5.95727697,2.66130781 L23.1674703,2.66130781 C24.0779202,2.66130781 24.856855,2.98692185 25.5050364,3.6384051 C26.1532177,4.28988836 26.4769276,5.07304625 26.4769276,5.98787879 L26.4769276,23.2857416 L26.4769276,23.2857416 Z" id="Shape"></path>
                </g>
            </g>
        </g>
    </g>
</svg>