<?xml version="1.0" standalone="no"?>
<!DOCTYPE svg PUBLIC "-//W3C//DTD SVG 1.1//EN" "http://www.w3.org/Graphics/SVG/1.1/DTD/svg11.dtd" >
<svg xmlns="http://www.w3.org/2000/svg">
<metadata>Generated by IcoMoon</metadata>
<defs>
<font id="BannerIcon" horiz-adv-x="1024">
<font-face units-per-em="1024" ascent="960" descent="-64" />
<missing-glyph horiz-adv-x="1024" />
<glyph unicode="&#x20;" d="" horiz-adv-x="512" />
<glyph unicode="&#xe600;" d="M512-65.172c282.77 0 512 229.23 512 512s-229.23 512-512 512c-282.77 0-512-229.23-512-512s229.23-512 512-512zM498.672 212.46h-0.599c-30.611 0-55.459 24.229-55.459 54.144 0 29.934 24.848 54.217 55.459 54.217h0.599c30.611 0 55.459-24.283 55.459-54.217 0-29.915-24.848-54.144-55.459-54.144zM578.194 625.461c-3.667-54.144-28.946-214.93-28.946-214.93 0-27.136-22.734-49.134-50.445-49.134h-0.861c-27.786 0-50.52 21.998-50.52 49.134 0 0-25.279 160.786-28.871 214.93-1.815 27.081 19.385 77.367 79.391 77.367 0.131 0 0.281-0.073 0.43-0.073s0.299 0.073 0.43 0.073c59.95 0 81.206-50.286 79.391-77.367z" />
<glyph unicode="&#xe601;" d="M512-45.389c271.894 0 492.308 220.414 492.308 492.308s-220.414 492.308-492.308 492.308c-271.894 0-492.308-220.414-492.308-492.308s220.414-492.308 492.308-492.308v0zM512-6.005c-250.143 0-452.923 202.781-452.923 452.923s202.781 452.923 452.923 452.923c250.143 0 452.923-202.781 452.923-452.923s-202.781-452.923-452.923-452.923zM499.697 230.579h-0.553c-28.256 0-51.193 22.365-51.193 49.979 0 27.631 22.937 50.047 51.193 50.047h0.553c28.256 0 51.193-22.415 51.193-50.047 0-27.614-22.937-49.979-51.193-49.979zM573.102 611.811c-3.385-49.979-26.719-198.397-26.719-198.397 0-25.049-20.985-45.354-46.564-45.354h-0.794c-25.648 0-46.633 20.306-46.633 45.354 0 0-23.334 148.418-26.65 198.397-1.675 24.998 17.893 71.416 73.284 71.416 0.121 0 0.259-0.068 0.397-0.068s0.276 0.068 0.397 0.068c55.338 0 74.959-46.418 73.284-71.416z" />
<glyph unicode="&#xe602;" d="M20.48 753.994v-573.278c0-113.282 91.728-204.881 204.881-204.881h573.278c113.282 0 204.881 91.728 204.881 204.881v573.278c0 113.282-91.728 204.881-204.881 204.881h-573.278c-113.282 0-204.881-91.728-204.881-204.881zM499.205 242.362h-0.575c-29.387 0-53.241 23.259-53.241 51.978 0 28.736 23.854 52.048 53.241 52.048h0.575c29.387 0 53.241-23.312 53.241-52.048 0-28.719-23.854-51.978-53.241-51.978zM575.546 638.843c-3.521-51.978-27.788-206.333-27.788-206.333 0-26.051-21.824-47.168-48.427-47.168h-0.826c-26.674 0-48.499 21.118-48.499 47.168 0 0-24.267 154.355-27.716 206.333-1.742 25.998 18.609 74.272 76.215 74.272 0.126 0 0.269-0.070 0.413-0.070s0.287 0.070 0.413 0.070c57.552 0 77.957-48.274 76.215-74.272z" />
<glyph unicode="&#xe603;" d="M61.44 753.994v0-573.278c0-90.611 73.341-163.921 163.921-163.921h573.278c90.611 0 163.921 73.341 163.921 163.921v573.278c0 90.611-73.341 163.921-163.921 163.921h-573.278c-90.611 0-163.921-73.341-163.921-163.921v0zM20.48 753.994c0 113.153 91.599 204.881 204.881 204.881h573.278c113.153 0 204.881-91.599 204.881-204.881v-573.278c0-113.153-91.599-204.881-204.881-204.881h-573.278c-113.153 0-204.881 91.599-204.881 204.881v573.278zM499.205 242.362h-0.575c-29.387 0-53.241 23.259-53.241 51.978 0 28.736 23.854 52.048 53.241 52.048h0.575c29.387 0 53.241-23.312 53.241-52.048 0-28.719-23.854-51.978-53.241-51.978zM575.546 638.843c-3.521-51.978-27.788-206.333-27.788-206.333 0-26.051-21.824-47.168-48.427-47.168h-0.826c-26.674 0-48.499 21.118-48.499 47.168 0 0-24.267 154.355-27.716 206.333-1.742 25.998 18.609 74.272 76.215 74.272 0.126 0 0.269-0.070 0.413-0.070s0.287 0.070 0.413 0.070c57.552 0 77.957-48.274 76.215-74.272z" />
<glyph unicode="&#xe604;" d="M493.253-22.142h-1.198c-61.222 0-110.919 48.457-110.919 108.288 0 59.867 49.696 108.434 110.919 108.434h1.198c61.222 0 110.919-48.567 110.919-108.434 0-59.831-49.696-108.288-110.919-108.288v0zM652.297 803.86c-7.335-108.288-57.892-429.861-57.892-429.861 0-54.272-45.468-98.267-100.89-98.267h-1.721c-55.572 0-101.039 43.995-101.039 98.267 0 0-50.557 321.573-57.742 429.861-3.63 54.162 38.769 154.734 158.781 154.734 0.262 0 0.561-0.146 0.861-0.146s0.599 0.146 0.861 0.146c119.9 0 162.411-100.571 158.781-154.734v0z" />
<glyph unicode="&#xe605;" d="M302.080 544.108l-71.68-71.68 230.4-230.4 512 512-71.68 71.68-440.32-440.32-158.72 158.72zM921.6 446.828c0-225.28-184.32-409.6-409.6-409.6s-409.6 184.32-409.6 409.6c0 225.28 184.32 409.6 409.6 409.6 40.96 0 76.8-5.12 112.64-15.36l81.92 81.92c-61.44 20.48-128 35.84-194.56 35.84-281.6 0-512-230.4-512-512s230.4-512 512-512c281.6 0 512 230.4 512 512h-102.4z" />
<glyph unicode="&#xe606;" d="M512-65.172c-282.77 0-512 229.23-512 512s229.23 512 512 512c282.77 0 512-229.23 512-512s-229.23-512-512-512zM215.703 469.116l235.621-235.621 356.974 353.362-73.304 73.304-283.67-280.058-162.317 162.317-73.304-73.304z" />
<glyph unicode="&#xe607;" d="M508.062-45.389c280.453 0 508.062 220.267 508.062 492.308s-227.609 492.308-508.062 492.308c-280.453 0-508.062-220.267-508.062-492.308s227.609-492.308 508.062-492.308zM234.556 467.491l217.496-217.496 329.514 326.181-67.665 67.665-261.849-258.515-149.831 149.831-67.665-67.665zM508.062-6.005c-258.985 0-468.677 202.928-468.677 452.923s209.692 452.923 468.677 452.923c258.985 0 468.677-202.928 468.677-452.923s-209.692-452.923-468.677-452.923v0z" />
<glyph unicode="&#xe608;" d="M288.085 571.12l-76.459-76.459 245.76-245.76 546.133 546.133-76.459 76.459-469.675-469.675-169.301 169.301zM894.293 85.062h-764.587v764.587h546.133v109.227h-546.133c-60.075 0-109.227-49.152-109.227-109.227v-764.587c0-60.075 49.152-109.227 109.227-109.227h764.587c60.075 0 109.227 49.152 109.227 109.227v436.907h-109.227v-436.907z" />
<glyph unicode="&#xe609;" d="M95.573 460.247l-95.573-95.573 307.2-307.2 682.667 682.667-95.573 95.573-587.093-587.093-211.627 211.627z" />
<glyph unicode="&#xe60a;" d="M512-64c282.77 0 512 229.23 512 512s-229.23 512-512 512c-282.77 0-512-229.23-512-512s229.23-512 512-512zM768 411.429h-219.429v-219.429h-73.143v219.429h-219.429v73.143h219.429v219.429h73.143v-219.429h219.429v-73.143z" />
<glyph unicode="&#xe60b;" d="M512-64c282.77 0 512 229.23 512 512s-229.23 512-512 512c-282.77 0-512-229.23-512-512s229.23-512 512-512v0zM512-23.040c-260.148 0-471.040 210.892-471.040 471.040s210.892 471.040 471.040 471.040c260.148 0 471.040-210.892 471.040-471.040s-210.892-471.040-471.040-471.040zM757.76 412.891h-210.651v-210.651h-70.217v210.651h-210.651v70.217h210.651v210.651h70.217v-210.651h210.651v-70.217z" />
<glyph unicode="&#xe60c;" d="M1024 374.857h-438.857v-438.857h-146.286v438.857h-438.857v146.286h438.857v438.857h146.286v-438.857h438.857v-146.286z" />
<glyph unicode="&#xe60d;" d="M0 448c0-282.77 229.23-512 512-512s512 229.23 512 512c0 282.77-229.23 512-512 512s-512-229.23-512-512zM538.667 661.333v-325.333l149.333 149.333 37.333-37.333-213.333-213.333-213.333 213.333 37.333 37.333 149.333-149.333v325.333h53.333z" />
<glyph unicode="&#xe60e;" d="M40.96 448c0 260.148 210.892 471.040 471.040 471.040s471.040-210.892 471.040-471.040c0-260.148-210.892-471.040-471.040-471.040s-471.040 210.892-471.040 471.040v0zM0 448c0-282.77 229.23-512 512-512s512 229.23 512 512c0 282.77-229.23 512-512 512s-512-229.23-512-512zM537.6 652.8v-312.32l143.36 143.36 35.84-35.84-204.8-204.8-204.8 204.8 35.84 35.84 143.36-143.36v312.32h51.2z" />
<glyph unicode="&#xe60f;" d="M810.582-64c117.867 0 213.418 95.416 213.418 213.418v597.165c0 117.867-95.416 213.418-213.418 213.418h-597.165c-117.867 0-213.418-95.416-213.418-213.418v-597.165c0-117.867 95.416-213.418 213.418-213.418h597.165zM538.667 661.333v-325.333l149.333 149.333 37.333-37.333-213.333-213.333-213.333 213.333 37.333 37.333 149.333-149.333v325.333h53.333z" />
<glyph unicode="&#xe610;" d="M810.582-21.333v0c94.354 0 170.751 76.364 170.751 170.751v597.165c0 94.354-76.364 170.751-170.751 170.751h-597.165c-94.354 0-170.751-76.364-170.751-170.751v-597.165c0-94.354 76.364-170.751 170.751-170.751h597.165zM810.582-64h-597.165c-118.002 0-213.418 95.55-213.418 213.418v597.165c0 118.002 95.55 213.418 213.418 213.418h597.165c118.002 0 213.418-95.55 213.418-213.418v-597.165c0-118.002-95.55-213.418-213.418-213.418zM538.667 661.333v-325.333l149.333 149.333 37.333-37.333-213.333-213.333-213.333 213.333 37.333 37.333 149.333-149.333v325.333h53.333z" />
<glyph unicode="&#xe611;" d="M570.667 960v-780.8l328.533 358.4 82.133-89.6-469.333-512-469.333 512 82.133 89.6 328.533-358.4v780.8h117.333z" />
<glyph unicode="&#xe612;" d="M0 448c0-282.77 229.23-512 512-512s512 229.23 512 512c0 282.77-229.23 512-512 512s-512-229.23-512-512zM678.529 590.629l50.683-51.2-217.212-219.429-217.212 219.429 50.683 51.2 166.529-168.229 166.529 168.229z" />
<glyph unicode="&#xe613;" d="M42.187 448c0 260.287 210.49 471.040 469.813 471.040s469.813-210.753 469.813-471.040c0-260.287-210.49-471.040-469.813-471.040s-469.813 210.753-469.813 471.040v0zM0 448c0-282.631 229.082-512 512-512s512 229.369 512 512c0 282.631-229.082 512-512 512s-512-229.369-512-512zM676.658 584.923l50.113-49.152-214.772-210.651-214.772 210.651 50.113 49.152 164.658-161.499 164.658 161.499z" />
<glyph unicode="&#xe614;" d="M810.582-64c117.867 0 213.418 95.416 213.418 213.418v597.165c0 117.867-95.416 213.418-213.418 213.418h-597.165c-117.867 0-213.418-95.416-213.418-213.418v-597.165c0-117.867 95.416-213.418 213.418-213.418h597.165zM675.556 583.837l49.778-48.762-213.333-208.98-213.333 208.98 49.778 48.762 163.556-160.218 163.556 160.218z" />
<glyph unicode="&#xe615;" d="M810.582-21.333v0c94.354 0 170.751 76.364 170.751 170.751v597.165c0 94.354-76.364 170.751-170.751 170.751h-597.165c-94.354 0-170.751-76.364-170.751-170.751v-597.165c0-94.354 76.364-170.751 170.751-170.751h597.165zM810.582-64h-597.165c-118.002 0-213.418 95.55-213.418 213.418v597.165c0 118.002 95.55 213.418 213.418 213.418h597.165c118.002 0 213.418-95.55 213.418-213.418v-597.165c0-118.002-95.55-213.418-213.418-213.418zM675.556 583.837l49.778-48.762-213.333-208.98-213.333 208.98 49.778 48.762 163.556-160.218 163.556 160.218z" />
<glyph unicode="&#xe616;" d="M904.533 768l119.467-113.778-512-487.619-512 487.619 119.467 113.778 392.533-373.841z" />
<glyph unicode="&#xe617;" d="M0 448c0-282.77 229.23-512 512-512s512 229.23 512 512c0 282.77-229.23 512-512 512s-512-229.23-512-512zM725.333 572.444l-213.333-248.889-213.333 248.889h426.667z" />
<glyph unicode="&#xe618;" d="M40.96 448c0 260.148 210.892 471.040 471.040 471.040s471.040-210.892 471.040-471.040c0-260.148-210.892-471.040-471.040-471.040s-471.040 210.892-471.040 471.040zM716.8 567.467l-204.8-238.933-204.8 238.933h409.6zM0 448c0-282.77 229.23-512 512-512s512 229.23 512 512c0 282.77-229.23 512-512 512s-512-229.23-512-512v0z" />
<glyph unicode="&#xe619;" d="M810.582-64c117.867 0 213.418 95.416 213.418 213.418v597.165c0 117.867-95.416 213.418-213.418 213.418h-597.165c-117.867 0-213.418-95.416-213.418-213.418v-597.165c0-117.867 95.416-213.418 213.418-213.418h597.165zM725.333 572.444l-213.333-248.889-213.333 248.889h426.667z" />
<glyph unicode="&#xe61a;" d="M810.582-21.333c94.354 0 170.751 76.364 170.751 170.751v597.165c0 94.354-76.364 170.751-170.751 170.751h-597.165c-94.354 0-170.751-76.364-170.751-170.751v-597.165c0-94.354 76.364-170.751 170.751-170.751h597.165zM725.333 572.444l-213.333-248.889-213.333 248.889h426.667zM810.582-64v0h-597.165c-118.002 0-213.418 95.55-213.418 213.418v597.165c0 118.002 95.55 213.418 213.418 213.418h597.165c118.002 0 213.418-95.55 213.418-213.418v-597.165c0-118.002-95.55-213.418-213.418-213.418v0z" />
<glyph unicode="&#xe61b;" d="M1024 746.667l-512-597.333-512 597.333z" />
<glyph unicode="&#xe61c;" d="M512-64c-282.77 0-512 229.23-512 512s229.23 512 512 512c282.77 0 512-229.23 512-512s-229.23-512-512-512zM725.333 474.667h-325.333l149.333 149.333-37.333 37.333-213.333-213.333 213.333-213.333 37.333 37.333-149.333 149.333h325.333v53.333z" />
<glyph unicode="&#xe61d;" d="M512-23.040c260.148 0 471.040 210.892 471.040 471.040s-210.892 471.040-471.040 471.040c-260.148 0-471.040-210.892-471.040-471.040s210.892-471.040 471.040-471.040v0zM512-64c-282.77 0-512 229.23-512 512s229.23 512 512 512c282.77 0 512-229.23 512-512s-229.23-512-512-512zM716.8 473.6h-312.32l143.36 143.36-35.84 35.84-204.8-204.8 204.8-204.8 35.84 35.84-143.36 143.36h312.32v51.2z" />
<glyph unicode="&#xe61e;" d="M0 746.582c0 117.867 95.416 213.418 213.418 213.418h597.165c117.867 0 213.418-95.416 213.418-213.418v-597.165c0-117.867-95.416-213.418-213.418-213.418h-597.165c-117.867 0-213.418 95.416-213.418 213.418v597.165zM725.333 474.667h-325.333l149.333 149.333-37.333 37.333-213.333-213.333 213.333-213.333 37.333 37.333-149.333 149.333h325.333v53.333z" />
<glyph unicode="&#xe61f;" d="M42.667 746.582v0c0 94.354 76.364 170.751 170.751 170.751h597.165c94.354 0 170.751-76.364 170.751-170.751v-597.165c0-94.354-76.364-170.751-170.751-170.751h-597.165c-94.354 0-170.751 76.364-170.751 170.751v597.165zM0 746.582v-597.165c0-118.002 95.55-213.418 213.418-213.418h597.165c118.002 0 213.418 95.55 213.418 213.418v597.165c0 118.002-95.55 213.418-213.418 213.418h-597.165c-118.002 0-213.418-95.55-213.418-213.418zM725.333 474.667h-325.333l149.333 149.333-37.333 37.333-213.333-213.333 213.333-213.333 37.333 37.333-149.333 149.333h325.333v53.333z" />
<glyph unicode="&#xe620;" d="M1024 506.667h-780.8l358.4 328.533-89.6 82.133-512-469.333 512-469.333 89.6 82.133-358.4 328.533h780.8v117.333z" />
<glyph unicode="&#xe621;" d="M512-64c-282.77 0-512 229.23-512 512s229.23 512 512 512c282.77 0 512-229.23 512-512s-229.23-512-512-512zM654.629 614.529l-51.2 50.683-219.429-217.212 219.429-217.212 51.2 50.683-168.229 166.529 168.229 166.529z" />
<glyph unicode="&#xe622;" d="M512 6.749c260.287 0 471.040 204.367 471.040 456.145s-210.753 456.145-471.040 456.145c-260.287 0-471.040-204.367-471.040-456.145s210.753-456.145 471.040-456.145v0zM512-34.211c-282.631 0-512 222.418-512 497.105s229.369 497.105 512 497.105c282.631 0 512-222.418 512-497.105s-229.369-497.105-512-497.105zM648.923 622.763l-49.152 48.656-210.651-208.524 210.651-208.524 49.152 48.656-161.499 159.868 161.499 159.868z" />
<glyph unicode="&#xe623;" d="M0 746.582c0 117.867 95.416 213.418 213.418 213.418h597.165c117.867 0 213.418-95.416 213.418-213.418v-597.165c0-117.867-95.416-213.418-213.418-213.418h-597.165c-117.867 0-213.418 95.416-213.418 213.418v597.165zM647.837 611.556l-48.762 49.778-208.98-213.333 208.98-213.333 48.762 49.778-160.218 163.556 160.218 163.556z" />
<glyph unicode="&#xe624;" d="M42.667 746.582v0c0 94.354 76.364 170.751 170.751 170.751h597.165c94.354 0 170.751-76.364 170.751-170.751v-597.165c0-94.354-76.364-170.751-170.751-170.751h-597.165c-94.354 0-170.751 76.364-170.751 170.751v597.165zM0 746.582v-597.165c0-118.002 95.55-213.418 213.418-213.418h597.165c118.002 0 213.418 95.55 213.418 213.418v597.165c0 118.002-95.55 213.418-213.418 213.418h-597.165c-118.002 0-213.418-95.55-213.418-213.418zM647.837 611.556l-48.762 49.778-208.98-213.333 208.98-213.333 48.762 49.778-160.218 163.556 160.218 163.556z" />
<glyph unicode="&#xe625;" d="M793.397 840.533l-113.778 119.467-487.619-512 487.619-512 113.778 119.467-373.841 392.533z" />
<glyph unicode="&#xe626;" d="M512-64c-282.77 0-512 229.23-512 512s229.23 512 512 512c282.77 0 512-229.23 512-512s-229.23-512-512-512zM636.444 661.333l-248.889-213.333 248.889-213.333v426.667z" />
<glyph unicode="&#xe627;" d="M512-23.040c260.148 0 471.040 210.892 471.040 471.040s-210.892 471.040-471.040 471.040c-260.148 0-471.040-210.892-471.040-471.040s210.892-471.040 471.040-471.040zM631.467 652.8l-238.933-204.8 238.933-204.8v409.6zM512-64c-282.77 0-512 229.23-512 512s229.23 512 512 512c282.77 0 512-229.23 512-512s-229.23-512-512-512v0z" />
<glyph unicode="&#xe628;" d="M0 746.582c0 117.867 95.416 213.418 213.418 213.418h597.165c117.867 0 213.418-95.416 213.418-213.418v-597.165c0-117.867-95.416-213.418-213.418-213.418h-597.165c-117.867 0-213.418 95.416-213.418 213.418v597.165zM636.444 661.333l-248.889-213.333 248.889-213.333v426.667z" />
<glyph unicode="&#xe629;" d="M42.667 746.582c0 94.354 76.364 170.751 170.751 170.751h597.165c94.354 0 170.751-76.364 170.751-170.751v-597.165c0-94.354-76.364-170.751-170.751-170.751h-597.165c-94.354 0-170.751 76.364-170.751 170.751v597.165zM636.444 661.333l-248.889-213.333 248.889-213.333v426.667zM0 746.582v0-597.165c0-118.002 95.55-213.418 213.418-213.418h597.165c118.002 0 213.418 95.55 213.418 213.418v597.165c0 118.002-95.55 213.418-213.418 213.418h-597.165c-118.002 0-213.418-95.55-213.418-213.418v0z" />
<glyph unicode="&#xe62a;" d="M810.667 960l-597.333-512 597.333-512z" />
<glyph unicode="&#xe62b;" d="M512-64c282.77 0 512 229.23 512 512s-229.23 512-512 512c-282.77 0-512-229.23-512-512s229.23-512 512-512zM298.667 474.667h325.333l-149.333 149.333 37.333 37.333 213.333-213.333-213.333-213.333-37.333 37.333 149.333 149.333h-325.333v53.333z" />
<glyph unicode="&#xe62c;" d="M512-23.040c-260.148 0-471.040 210.892-471.040 471.040s210.892 471.040 471.040 471.040c260.148 0 471.040-210.892 471.040-471.040s-210.892-471.040-471.040-471.040v0zM512-64c282.77 0 512 229.23 512 512s-229.23 512-512 512c-282.77 0-512-229.23-512-512s229.23-512 512-512zM307.2 473.6h312.32l-143.36 143.36 35.84 35.84 204.8-204.8-204.8-204.8-35.84 35.84 143.36 143.36h-312.32v51.2z" />
<glyph unicode="&#xe62d;" d="M1024 746.582c0 117.867-95.416 213.418-213.418 213.418h-597.165c-117.867 0-213.418-95.416-213.418-213.418v-597.165c0-117.867 95.416-213.418 213.418-213.418h597.165c117.867 0 213.418 95.416 213.418 213.418v597.165zM298.667 474.667h325.333l-149.333 149.333 37.333 37.333 213.333-213.333-213.333-213.333-37.333 37.333 149.333 149.333h-325.333v53.333z" />
<glyph unicode="&#xe62e;" d="M981.333 746.582v0c0 94.354-76.364 170.751-170.751 170.751h-597.165c-94.354 0-170.751-76.364-170.751-170.751v-597.165c0-94.354 76.364-170.751 170.751-170.751h597.165c94.354 0 170.751 76.364 170.751 170.751v597.165zM1024 746.582v-597.165c0-118.002-95.55-213.418-213.418-213.418h-597.165c-118.002 0-213.418 95.55-213.418 213.418v597.165c0 118.002 95.55 213.418 213.418 213.418h597.165c118.002 0 213.418-95.55 213.418-213.418zM298.667 474.667h325.333l-149.333 149.333 37.333 37.333 213.333-213.333-213.333-213.333-37.333 37.333 149.333 149.333h-325.333v53.333z" />
<glyph unicode="&#xe62f;" d="M0 506.667h780.8l-358.4 328.533 89.6 82.133 512-469.333-512-469.333-89.6 82.133 358.4 328.533h-780.8v117.333z" />
<glyph unicode="&#xe630;" d="M512-64c282.77 0 512 229.23 512 512s-229.23 512-512 512c-282.77 0-512-229.23-512-512s229.23-512 512-512zM369.371 614.529l51.2 50.683 219.429-217.212-219.429-217.212-51.2 50.683 168.229 166.529-168.229 166.529z" />
<glyph unicode="&#xe631;" d="M512 6.749c-260.287 0-471.040 204.367-471.040 456.145s210.753 456.145 471.040 456.145c260.287 0 471.040-204.367 471.040-456.145s-210.753-456.145-471.040-456.145v0zM512-34.211c282.631 0 512 222.418 512 497.105s-229.369 497.105-512 497.105c-282.631 0-512-222.418-512-497.105s229.369-497.105 512-497.105zM375.077 622.763l49.152 48.656 210.651-208.524-210.651-208.524-49.152 48.656 161.499 159.868-161.499 159.868z" />
<glyph unicode="&#xe632;" d="M1024 746.582c0 117.867-95.416 213.418-213.418 213.418h-597.165c-117.867 0-213.418-95.416-213.418-213.418v-597.165c0-117.867 95.416-213.418 213.418-213.418h597.165c117.867 0 213.418 95.416 213.418 213.418v597.165zM376.163 611.556l48.762 49.778 208.98-213.333-208.98-213.333-48.762 49.778 160.218 163.556-160.218 163.556z" />
<glyph unicode="&#xe633;" d="M981.333 746.582v0c0 94.354-76.364 170.751-170.751 170.751h-597.165c-94.354 0-170.751-76.364-170.751-170.751v-597.165c0-94.354 76.364-170.751 170.751-170.751h597.165c94.354 0 170.751 76.364 170.751 170.751v597.165zM1024 746.582v-597.165c0-118.002-95.55-213.418-213.418-213.418h-597.165c-118.002 0-213.418 95.55-213.418 213.418v597.165c0 118.002 95.55 213.418 213.418 213.418h597.165c118.002 0 213.418-95.55 213.418-213.418zM376.163 611.556l48.762 49.778 208.98-213.333-208.98-213.333-48.762 49.778 160.218 163.556-160.218 163.556z" />
<glyph unicode="&#xe634;" d="M202.159 840.533l113.778 119.467 487.619-512-487.619-512-113.778 119.467 373.841 392.533z" />
<glyph unicode="&#xe635;" d="M512-64c282.77 0 512 229.23 512 512s-229.23 512-512 512c-282.77 0-512-229.23-512-512s229.23-512 512-512zM387.556 661.333l248.889-213.333-248.889-213.333v426.667z" />
<glyph unicode="&#xe636;" d="M512-23.040c-260.148 0-471.040 210.892-471.040 471.040s210.892 471.040 471.040 471.040c260.148 0 471.040-210.892 471.040-471.040s-210.892-471.040-471.040-471.040zM392.533 652.8l238.933-204.8-238.933-204.8v409.6zM512-64c282.77 0 512 229.23 512 512s-229.23 512-512 512c-282.77 0-512-229.23-512-512s229.23-512 512-512v0z" />
<glyph unicode="&#xe637;" d="M1024 746.582c0 117.867-95.416 213.418-213.418 213.418h-597.165c-117.867 0-213.418-95.416-213.418-213.418v-597.165c0-117.867 95.416-213.418 213.418-213.418h597.165c117.867 0 213.418 95.416 213.418 213.418v597.165zM387.556 661.333l248.889-213.333-248.889-213.333v426.667z" />
<glyph unicode="&#xe638;" d="M981.333 746.582c0 94.354-76.364 170.751-170.751 170.751h-597.165c-94.354 0-170.751-76.364-170.751-170.751v-597.165c0-94.354 76.364-170.751 170.751-170.751h597.165c94.354 0 170.751 76.364 170.751 170.751v597.165zM387.556 661.333l248.889-213.333-248.889-213.333v426.667zM1024 746.582v0-597.165c0-118.002-95.55-213.418-213.418-213.418h-597.165c-118.002 0-213.418 95.55-213.418 213.418v597.165c0 118.002 95.55 213.418 213.418 213.418h597.165c118.002 0 213.418-95.55 213.418-213.418v0z" />
<glyph unicode="&#xe639;" d="M213.333 960l597.333-512-597.333-512z" />
<glyph unicode="&#xe63a;" d="M0 448c0 282.77 229.23 512 512 512s512-229.23 512-512c0-282.77-229.23-512-512-512s-512 229.23-512 512zM538.667 234.667v325.333l149.333-149.333 37.333 37.333-213.333 213.333-213.333-213.333 37.333-37.333 149.333 149.333v-325.333h53.333z" />
<glyph unicode="&#xe63b;" d="M810.582 960c117.867 0 213.418-95.416 213.418-213.418v-597.165c0-117.867-95.416-213.418-213.418-213.418h-597.165c-117.867 0-213.418 95.416-213.418 213.418v597.165c0 117.867 95.416 213.418 213.418 213.418h597.165zM538.667 234.667v325.333l149.333-149.333 37.333 37.333-213.333 213.333-213.333-213.333 37.333-37.333 149.333 149.333v-325.333h53.333z" />
<glyph unicode="&#xe63c;" d="M810.582 917.333v0c94.354 0 170.751-76.364 170.751-170.751v-597.165c0-94.354-76.364-170.751-170.751-170.751h-597.165c-94.354 0-170.751 76.364-170.751 170.751v597.165c0 94.354 76.364 170.751 170.751 170.751h597.165zM810.582 960h-597.165c-118.002 0-213.418-95.55-213.418-213.418v-597.165c0-118.002 95.55-213.418 213.418-213.418h597.165c118.002 0 213.418 95.55 213.418 213.418v597.165c0 118.002-95.55 213.418-213.418 213.418zM538.667 234.667v325.333l149.333-149.333 37.333 37.333-213.333 213.333-213.333-213.333 37.333-37.333 149.333 149.333v-325.333h53.333z" />
<glyph unicode="&#xe63d;" d="M570.667-64v780.8l328.533-358.4 82.133 89.6-469.333 512-469.333-512 82.133-89.6 328.533 358.4v-780.8h117.333z" />
<glyph unicode="&#xe63e;" d="M0 448c0 282.77 229.23 512 512 512s512-229.23 512-512c0-282.77-229.23-512-512-512s-512 229.23-512 512zM678.529 305.371l50.683 51.2-217.212 219.429-217.212-219.429 50.683-51.2 166.529 168.229 166.529-168.229z" />
<glyph unicode="&#xe63f;" d="M42.187 448c0-260.287 210.49-471.040 469.813-471.040s469.813 210.753 469.813 471.040c0 260.287-210.49 471.040-469.813 471.040s-469.813-210.753-469.813-471.040v0zM0 448c0 282.631 229.082 512 512 512s512-229.369 512-512c0-282.631-229.082-512-512-512s-512 229.369-512 512zM676.658 311.077l50.113 49.152-214.772 210.651-214.772-210.651 50.113-49.152 164.658 161.499 164.658-161.499z" />
<glyph unicode="&#xe640;" d="M810.582 960c117.867 0 213.418-95.416 213.418-213.418v-597.165c0-117.867-95.416-213.418-213.418-213.418h-597.165c-117.867 0-213.418 95.416-213.418 213.418v597.165c0 117.867 95.416 213.418 213.418 213.418h597.165zM675.556 312.163l49.778 48.762-213.333 208.98-213.333-208.98 49.778-48.762 163.556 160.218 163.556-160.218z" />
<glyph unicode="&#xe641;" d="M810.582 917.333v0c94.354 0 170.751-76.364 170.751-170.751v-597.165c0-94.354-76.364-170.751-170.751-170.751h-597.165c-94.354 0-170.751 76.364-170.751 170.751v597.165c0 94.354 76.364 170.751 170.751 170.751h597.165zM810.582 960h-597.165c-118.002 0-213.418-95.55-213.418-213.418v-597.165c0-118.002 95.55-213.418 213.418-213.418h597.165c118.002 0 213.418 95.55 213.418 213.418v597.165c0 118.002-95.55 213.418-213.418 213.418zM675.556 312.163l49.778 48.762-213.333 208.98-213.333-208.98 49.778-48.762 163.556 160.218 163.556-160.218z" />
<glyph unicode="&#xe642;" d="M904.533 166.603l119.467 113.778-512 487.619-512-487.619 119.467-113.778 392.533 373.841z" />
<glyph unicode="&#xe643;" d="M0 448c0 282.77 229.23 512 512 512s512-229.23 512-512c0-282.77-229.23-512-512-512s-512 229.23-512 512zM725.333 323.556l-213.333 248.889-213.333-248.889h426.667z" />
<glyph unicode="&#xe644;" d="M40.96 448c0-260.148 210.892-471.040 471.040-471.040s471.040 210.892 471.040 471.040c0 260.148-210.892 471.040-471.040 471.040s-471.040-210.892-471.040-471.040zM716.8 328.533l-204.8 238.933-204.8-238.933h409.6zM0 448c0 282.77 229.23 512 512 512s512-229.23 512-512c0-282.77-229.23-512-512-512s-512 229.23-512 512v0z" />
<glyph unicode="&#xe645;" d="M810.582 960c117.867 0 213.418-95.416 213.418-213.418v-597.165c0-117.867-95.416-213.418-213.418-213.418h-597.165c-117.867 0-213.418 95.416-213.418 213.418v597.165c0 117.867 95.416 213.418 213.418 213.418h597.165zM725.333 323.556l-213.333 248.889-213.333-248.889h426.667z" />
<glyph unicode="&#xe646;" d="M810.582 917.333c94.354 0 170.751-76.364 170.751-170.751v-597.165c0-94.354-76.364-170.751-170.751-170.751h-597.165c-94.354 0-170.751 76.364-170.751 170.751v597.165c0 94.354 76.364 170.751 170.751 170.751h597.165zM725.333 323.556l-213.333 248.889-213.333-248.889h426.667zM810.582 960v0h-597.165c-118.002 0-213.418-95.55-213.418-213.418v-597.165c0-118.002 95.55-213.418 213.418-213.418h597.165c118.002 0 213.418 95.55 213.418 213.418v597.165c0 118.002-95.55 213.418-213.418 213.418v0z" />
<glyph unicode="&#xe647;" d="M1024 149.333l-512 597.333-512-597.333z" />
<glyph unicode="&#xe648;" d="M512-61.566c271.894 0 492.308 220.414 492.308 492.308s-220.414 492.308-492.308 492.308c-271.894 0-492.308-220.414-492.308-492.308s220.414-492.308 492.308-492.308v0zM219.045 85.307c-97.865 83.079-159.968 207.004-159.968 345.434 0 250.143 202.781 452.923 452.923 452.923s452.923-202.781 452.923-452.923c0-138.43-62.103-262.355-159.968-345.435-59.704 108.172-173.639 173.673-292.971 173.6-119.293 0.073-233.235-65.437-292.939-173.599v0zM339.751 465.171c0-96.234 77.075-174.307 172.254-174.323 95.171 0.016 172.243 78.092 172.243 174.323 0 96.223-77.080 174.292-172.239 174.308-95.181-0.016-172.258-78.087-172.258-174.308z" />
<glyph unicode="&#xe649;" d="M512-40.989c271.459 0 491.52 220.061 491.52 491.52s-220.061 491.52-491.52 491.52c-271.459 0-491.52-220.061-491.52-491.52s220.061-491.52 491.52-491.52zM332.861 519.147c0 100.070 80.161 181.263 179.149 181.28 98.966-0.017 179.129-81.208 179.129-181.28 0-100.080-80.155-181.279-179.133-181.296-98.986 0.017-179.144 81.213-179.144 181.296zM818.243 121.212c-80.379-74.518-187.991-120.073-306.242-120.073s-225.864 45.555-306.243 120.074c61.65 114.201 181.108 183.495 306.226 183.418 125.16 0.077 244.61-69.207 306.26-183.419z" />
<glyph unicode="&#xe64a;" d="M379.348 530.772v0c0-74.496 59.482-134.71 132.65-134.722 73.172 0.012 132.653 60.228 132.653 134.722 0 74.482-59.484 134.695-132.635 134.707-73.183-0.012-132.668-60.224-132.668-134.707zM512-40.989c271.459 0 491.52 220.061 491.52 491.52s-220.061 491.52-491.52 491.52c-271.459 0-491.52-220.061-491.52-491.52s220.061-491.52 491.52-491.52zM340.027 530.772c0 96.067 76.954 174.013 171.983 174.029 95.007-0.016 171.964-77.959 171.964-174.029 0-96.077-76.949-174.028-171.968-174.044-95.027 0.016-171.979 77.964-171.979 174.044zM847.83 116.449l-34.602-18.678-7.234 13.402c-58.397 108.186-172.192 176.157-294.034 176.082-121.757 0.075-235.558-67.91-293.953-176.081l-7.235-13.403-34.602 18.679 7.235 13.403c65.257 120.883 192.348 196.807 328.554 196.724 136.29 0.084 263.377-75.827 328.636-196.726l7.234-13.402zM512-1.667c-249.742 0-452.198 202.456-452.198 452.198s202.456 452.198 452.198 452.198c249.742 0 452.198-202.456 452.198-452.198s-202.456-452.198-452.198-452.198v0z" />
<glyph unicode="&#xe64b;" d="M265.174 694.757c0-145.048 116.171-262.723 259.629-262.748 143.446 0.024 259.613 117.704 259.613 262.748 0 145.033-116.179 262.701-259.607 262.725-143.461-0.024-259.636-117.696-259.636-262.725zM703.837-55.979h-679.911c38.496 266.568 262.589 439.99 500.844 439.843 238.327 0.146 462.369-173.239 500.895-439.843h-321.828z" />
<glyph unicode="&#xe64c;" d="M300.405 705.654c0 112.274 89.782 203.212 200.451 203.231 110.641-0.019 200.426-90.955 200.426-203.231 0-112.288-89.776-203.233-200.431-203.251-110.667 0.019-200.446 90.96-200.446 203.251v0zM267.239 705.654c0-130.512 104.529-236.395 233.612-236.417 129.071 0.022 233.597 105.909 233.597 236.417 0 130.499-104.536 236.375-233.592 236.397-129.085-0.022-233.617-105.902-233.617-236.397zM96.632-26.416l1.411 11.552c27.353 226.672 199.025 397.263 402.8 397.379 203.78-0.116 375.469-170.712 402.799-397.354l16.464 1.985-2.026 16.459-10.116-1.245 2.026-16.459h16.583v10.327h-33.166v-29.076l28.725 3.535-2.026 16.459-16.464-1.982 1.39-11.552 16.464 1.982v16.583h-841.325v-16.583l16.461-2.010zM63.71-22.396l-2.27-18.593h878.754l-5.612 46.625-26.619-3.276 2.026-16.459h16.583v10.327h-33.166v-29.076l45.143 5.556-1.98 16.423c-29.248 242.555-214.295 426.424-435.726 426.55-221.426-0.126-406.455-183.99-435.725-426.549l-1.408-11.529z" />
<glyph unicode="&#xe64d;" d="M512-64c-282.77 0-512 229.23-512 512s229.23 512 512 512c282.77 0 512-229.23 512-512s-229.23-512-512-512zM636.444 422.4h-124.444v-128h124.444v128zM611.556 704v-51.2h-199.111v51.2h-49.778v-51.2h-24.889c-27.378 0-49.778-23.040-49.778-51.2v-358.4c0-28.16 22.4-51.2 49.778-51.2h348.444c27.378 0 49.778 23.040 49.778 51.2v358.4c0 28.16-22.4 51.2-49.778 51.2h-24.889v51.2h-49.778zM686.222 243.2h-348.444v281.6h348.444v-281.6z" />
<glyph unicode="&#xe64e;" d="M512-64c282.77 0 512 229.23 512 512s-229.23 512-512 512c-282.77 0-512-229.23-512-512s229.23-512 512-512v0zM512-23.040c-260.148 0-471.040 210.892-471.040 471.040s210.892 471.040 471.040 471.040c260.148 0 471.040-210.892 471.040-471.040s-210.892-471.040-471.040-471.040zM631.467 423.424h-119.467v-122.88h119.467v122.88zM607.573 693.76v-49.152h-191.147v49.152h-47.787v-49.152h-23.893c-26.283 0-47.787-22.118-47.787-49.152v-344.064c0-27.034 21.504-49.152 47.787-49.152h334.507c26.283 0 47.787 22.118 47.787 49.152v344.064c0 27.034-21.504 49.152-47.787 49.152h-23.893v49.152h-47.787zM679.253 251.392h-334.507v270.336h334.507v-270.336z" />
<glyph unicode="&#xe64f;" d="M0 746.582c0 117.867 95.416 213.418 213.418 213.418h597.165c117.867 0 213.418-95.416 213.418-213.418v-597.165c0-117.867-95.416-213.418-213.418-213.418h-597.165c-117.867 0-213.418 95.416-213.418 213.418v597.165zM636.444 422.4h-124.444v-128h124.444v128zM611.556 704v-51.2h-199.111v51.2h-49.778v-51.2h-24.889c-27.378 0-49.778-23.040-49.778-51.2v-358.4c0-28.16 22.4-51.2 49.778-51.2h348.444c27.378 0 49.778 23.040 49.778 51.2v358.4c0 28.16-22.4 51.2-49.778 51.2h-24.889v51.2h-49.778zM686.222 243.2h-348.444v281.6h348.444v-281.6z" />
<glyph unicode="&#xe650;" d="M42.667 746.582v0-597.165c0-94.387 76.397-170.751 170.751-170.751h597.165c94.387 0 170.751 76.397 170.751 170.751v597.165c0 94.387-76.397 170.751-170.751 170.751h-597.165c-94.387 0-170.751-76.397-170.751-170.751v0zM0 746.582c0 117.867 95.416 213.418 213.418 213.418h597.165c117.867 0 213.418-95.416 213.418-213.418v-597.165c0-117.867-95.416-213.418-213.418-213.418h-597.165c-117.867 0-213.418 95.416-213.418 213.418v597.165zM636.444 422.4h-124.444v-128h124.444v128zM611.556 704v-51.2h-199.111v51.2h-49.778v-51.2h-24.889c-27.378 0-49.778-23.040-49.778-51.2v-358.4c0-28.16 22.4-51.2 49.778-51.2h348.444c27.378 0 49.778 23.040 49.778 51.2v358.4c0 28.16-22.4 51.2-49.778 51.2h-24.889v51.2h-49.778zM686.222 243.2h-348.444v281.6h348.444v-281.6z" />
<glyph unicode="&#xe651;" d="M768 396.8h-256v-256h256v256zM716.8 960v-102.4h-409.6v102.4h-102.4v-102.4h-51.2c-56.32 0-102.4-46.080-102.4-102.4v-716.8c0-56.32 46.080-102.4 102.4-102.4h716.8c56.32 0 102.4 46.080 102.4 102.4v716.8c0 56.32-46.080 102.4-102.4 102.4h-51.2v102.4h-102.4zM870.4 38.4h-716.8v563.2h716.8v-563.2z" />
<glyph unicode="&#xe652;" d="M512-64c-282.77 0-512 229.23-512 512s229.23 512 512 512c282.77 0 512-229.23 512-512s-229.23-512-512-512zM234.667 464.762h163.137v201.143h-163.137v-201.143zM234.667 230.095h163.137v201.143h-163.137v-201.143zM430.431 230.095h163.137v201.143h-163.137v-201.143zM626.196 230.095h163.137v201.143h-163.137v-201.143zM430.431 464.762h163.137v201.143h-163.137v-201.143zM626.196 665.905v-201.143h163.137v201.143h-163.137z" />
<glyph unicode="&#xe653;" d="M245.76 464.091h156.612v193.097h-156.612v-193.097zM245.76 238.811h156.612v193.097h-156.612v-193.097zM433.694 238.811h156.612v193.097h-156.612v-193.097zM621.628 238.811h156.612v193.097h-156.612v-193.097zM433.694 464.091h156.612v193.097h-156.612v-193.097zM512-64c282.77 0 512 229.23 512 512s-229.23 512-512 512c-282.77 0-512-229.23-512-512s229.23-512 512-512zM621.628 657.189v-193.097h156.612v193.097h-156.612zM512-23.040c-260.148 0-471.040 210.892-471.040 471.040s210.892 471.040 471.040 471.040c260.148 0 471.040-210.892 471.040-471.040s-210.892-471.040-471.040-471.040v0z" />
<glyph unicode="&#xe654;" d="M0 746.582c0 117.867 95.416 213.418 213.418 213.418h597.165c117.867 0 213.418-95.416 213.418-213.418v-597.165c0-117.867-95.416-213.418-213.418-213.418h-597.165c-117.867 0-213.418 95.416-213.418 213.418v597.165zM213.333 466.051h175.686v216.615h-175.686v-216.615zM213.333 213.333h175.686v216.615h-175.686v-216.615zM424.157 213.333h175.686v216.615h-175.686v-216.615zM634.98 213.333h175.686v216.615h-175.686v-216.615zM424.157 466.051h175.686v216.615h-175.686v-216.615zM634.98 682.667v-216.615h175.686v216.615h-175.686z" />
<glyph unicode="&#xe655;" d="M213.333 466.051h175.686v216.615h-175.686v-216.615zM213.333 213.333h175.686v216.615h-175.686v-216.615zM424.157 213.333h175.686v216.615h-175.686v-216.615zM634.98 213.333h175.686v216.615h-175.686v-216.615zM424.157 466.051h175.686v216.615h-175.686v-216.615zM42.667 746.582v-597.165c0-94.387 76.397-170.751 170.751-170.751h597.165c94.387 0 170.751 76.397 170.751 170.751v597.165c0 94.387-76.397 170.751-170.751 170.751h-597.165c-94.387 0-170.751-76.397-170.751-170.751zM634.98 682.667v-216.615h175.686v216.615h-175.686zM0 746.582c0 117.867 95.416 213.418 213.418 213.418h597.165c117.867 0 213.418-95.416 213.418-213.418v-597.165c0-117.867-95.416-213.418-213.418-213.418h-597.165c-117.867 0-213.418 95.416-213.418 213.418v597.165z" />
<glyph unicode="&#xe656;" d="M0 478.118h301.176v361.412h-301.176v-361.412zM0 56.471h301.176v361.412h-301.176v-361.412zM361.412 56.471h301.176v361.412h-301.176v-361.412zM722.824 56.471h301.176v361.412h-301.176v-361.412zM361.412 478.118h301.176v361.412h-301.176v-361.412zM722.824 839.529v-361.412h301.176v361.412h-301.176z" />
<glyph unicode="&#xe657;" d="M512-64c-282.77 0-512 229.23-512 512s229.23 512 512 512c282.77 0 512-229.23 512-512s-229.23-512-512-512zM215.703 470.287l235.621-235.621 356.974 353.362-73.304 73.304-283.67-280.058-162.317 162.317-73.304-73.304z" />
<glyph unicode="&#xe658;" d="M302.080 545.28l-71.68-71.68 230.4-230.4 512 512-71.68 71.68-440.32-440.32-158.72 158.72zM921.6 448c0-225.28-184.32-409.6-409.6-409.6s-409.6 184.32-409.6 409.6c0 225.28 184.32 409.6 409.6 409.6 40.96 0 76.8-5.12 112.64-15.36l81.92 81.92c-61.44 20.48-128 35.84-194.56 35.84-281.6 0-512-230.4-512-512s230.4-512 512-512c281.6 0 512 230.4 512 512h-102.4z" />
<glyph unicode="&#xe659;" d="M278.756 556.089l-79.644-79.644 256-256 568.889 568.889-79.644 79.644-489.244-489.244-176.356 176.356zM910.222 49.778h-796.444v796.444h568.889v113.778h-568.889c-62.578 0-113.778-51.2-113.778-113.778v-796.444c0-62.578 51.2-113.778 113.778-113.778h796.444c62.578 0 113.778 51.2 113.778 113.778v455.111h-113.778v-455.111z" />
<glyph unicode="&#xe65a;" d="M95.573 482.133l-95.573-95.573 307.2-307.2 682.667 682.667-95.573 95.573-587.093-587.093-211.627 211.627z" />
<glyph unicode="&#xe65b;" d="M512-64c-282.77 0-512 229.23-512 512s229.23 512 512 512c282.77 0 512-229.23 512-512s-229.23-512-512-512zM264.723 514.258c-36.442-136.002 45.017-277.093 181.019-313.535s277.093 45.017 313.535 181.019c36.442 136.002-45.017 277.093-181.019 313.535s-277.093-45.017-313.535-181.019zM709.822 394.994c-29.153-108.802-142.026-173.969-250.828-144.815s-173.969 142.026-144.815 250.828c29.153 108.802 142.026 173.969 250.828 144.815s173.969-142.026 144.815-250.828zM391.674 493.493l-9.939-37.092 148.366-39.755 113.583 107.382-26.845 28.396-96.581-93.385-128.584 34.454z" />
<glyph unicode="&#xe65c;" d="M512-64c282.77 0 512 229.23 512 512s-229.23 512-512 512c-282.77 0-512-229.23-512-512s229.23-512 512-512v0zM512-23.040c-260.148 0-471.040 210.892-471.040 471.040s210.892 471.040 471.040 471.040c260.148 0 471.040-210.892 471.040-471.040s-210.892-471.040-471.040-471.040zM274.614 511.607c-34.984-130.562 43.216-266.009 173.779-300.993s266.009 43.216 300.993 173.779c34.984 130.562-43.216 266.009-173.779 300.993s-266.009-43.216-300.993-173.779zM701.909 397.114c-27.987-104.45-136.345-167.010-240.795-139.023s-167.010 136.345-139.023 240.795c27.987 104.45 136.345 167.010 240.795 139.023s167.010-136.345 139.023-240.795zM396.487 491.673l-9.541-35.608 142.432-38.164 109.039 103.086-25.772 27.26-92.718-89.65-123.441 33.076z" />
<glyph unicode="&#xe65d;" d="M0 746.582c0 117.867 95.416 213.418 213.418 213.418h597.165c117.867 0 213.418-95.416 213.418-213.418v-597.165c0-117.867-95.416-213.418-213.418-213.418h-597.165c-117.867 0-213.418 95.416-213.418 213.418v597.165zM264.723 514.258c-36.442-136.002 45.017-277.093 181.019-313.535s277.093 45.017 313.535 181.019c36.442 136.002-45.017 277.093-181.019 313.535s-277.093-45.017-313.535-181.019zM709.822 394.994c-29.153-108.802-142.026-173.969-250.828-144.815s-173.969 142.026-144.815 250.828c29.153 108.802 142.026 173.969 250.828 144.815s173.969-142.026 144.815-250.828zM391.674 493.493l-9.939-37.092 148.366-39.755 113.583 107.382-26.845 28.396-96.581-93.385-128.584 34.454z" />
<glyph unicode="&#xe65e;" d="M42.667 746.582v0-597.165c0-94.387 76.397-170.751 170.751-170.751h597.165c94.387 0 170.751 76.397 170.751 170.751v597.165c0 94.387-76.397 170.751-170.751 170.751h-597.165c-94.387 0-170.751-76.397-170.751-170.751v0zM0 746.582c0 117.867 95.416 213.418 213.418 213.418h597.165c117.867 0 213.418-95.416 213.418-213.418v-597.165c0-117.867-95.416-213.418-213.418-213.418h-597.165c-117.867 0-213.418 95.416-213.418 213.418v597.165zM264.723 514.258c-36.442-136.002 45.017-277.093 181.019-313.535s277.093 45.017 313.535 181.019c36.442 136.002-45.017 277.093-181.019 313.535s-277.093-45.017-313.535-181.019zM709.822 394.994c-29.153-108.802-142.026-173.969-250.828-144.815s-173.969 142.026-144.815 250.828c29.153 108.802 142.026 173.969 250.828 144.815s173.969-142.026 144.815-250.828zM391.674 493.493l-9.939-37.092 148.366-39.755 113.583 107.382-26.845 28.396-96.581-93.385-128.584 34.454z" />
<glyph unicode="&#xe65f;" d="M17.446 580.515c-72.883-272.005 90.034-554.186 362.039-627.069s554.186 90.034 627.069 362.039c72.883 272.005-90.034 554.186-362.039 627.069s-554.186-90.034-627.069-362.039zM907.643 341.988c-58.307-217.604-284.052-347.938-501.655-289.631s-347.938 284.052-289.631 501.655c58.307 217.604 284.052 347.938 501.655 289.631s347.938-284.052 289.631-501.655zM271.349 538.985l-19.877-74.183 296.732-79.509 227.165 214.763-53.691 56.791-193.161-186.77-257.168 68.908z" />
<glyph unicode="&#xe660;" d="M512-64c282.77 0 512 229.23 512 512s-229.23 512-512 512c-282.77 0-512-229.23-512-512s229.23-512 512-512zM768 384h-512v128h512v-128z" />
<glyph unicode="&#xe661;" d="M512-64c282.77 0 512 229.23 512 512s-229.23 512-512 512c-282.77 0-512-229.23-512-512s229.23-512 512-512zM757.76 386.56h-491.52v122.88h491.52v-122.88zM512-23.040c-260.148 0-471.040 210.892-471.040 471.040s210.892 471.040 471.040 471.040c260.148 0 471.040-210.892 471.040-471.040s-210.892-471.040-471.040-471.040v0z" />
<glyph unicode="&#xe662;" d="M0 557.714h1024v-219.429h-1024v219.429z" />
<glyph unicode="&#xe663;" d="M512-64c-282.77 0-512 229.23-512 512s229.23 512 512 512c282.77 0 512-229.23 512-512s-229.23-512-512-512zM563.2 704h-204.8c-28.16 0-51.2-23.040-51.2-51.2v-409.6c0-28.16 23.040-51.2 51.2-51.2h307.2c28.16 0 51.2 23.040 51.2 51.2v307.2l-153.6 153.6zM614.4 396.8h-204.8v51.2h204.8v-51.2zM563.2 294.4h-153.6v51.2h153.6v-51.2zM537.6 524.8v140.8l140.8-140.8h-140.8z" />
<glyph unicode="&#xe664;" d="M512-64c282.77 0 512 229.23 512 512s-229.23 512-512 512c-282.77 0-512-229.23-512-512s229.23-512 512-512v0zM512-23.040c-260.148 0-471.040 210.892-471.040 471.040s210.892 471.040 471.040 471.040c260.148 0 471.040-210.892 471.040-471.040s-210.892-471.040-471.040-471.040zM561.152 708.096h-196.608c-34.951 0-63.488-28.537-63.488-63.488v-393.216c0-34.951 28.537-63.488 63.488-63.488h294.912c34.951 0 63.488 28.537 63.488 63.488v300.85l-155.854 155.854h-5.938zM561.152 679.424l-10.137 4.199 147.456-147.456-4.199 10.137v-294.912c0-19.116-15.7-34.816-34.816-34.816h-294.912c-19.116 0-34.816 15.7-34.816 34.816v393.216c0 19.116 15.7 34.816 34.816 34.816h196.608zM610.304 413.184h-196.608l14.336-14.336v49.152l-14.336-14.336h196.608l-14.336 14.336v-49.152l14.336 14.336zM610.304 384.512h14.336v77.824h-225.28v-77.824h210.944zM561.152 314.88h-147.456l14.336-14.336v49.152l-14.336-14.336h147.456l-14.336 14.336v-49.152l14.336 14.336zM561.152 286.208h14.336v77.824h-176.128v-77.824h161.792zM550.912 521.728v135.168l-24.473-10.137 135.168-135.168 10.137 24.473h-135.168l14.336-14.336zM522.24 521.728v-14.336h184.114l-184.114 184.114v-169.778z" />
<glyph unicode="&#xe665;" d="M0 746.582c0 117.867 95.416 213.418 213.418 213.418h597.165c117.867 0 213.418-95.416 213.418-213.418v-597.165c0-117.867-95.416-213.418-213.418-213.418h-597.165c-117.867 0-213.418 95.416-213.418 213.418v597.165zM563.2 704h-204.8c-28.16 0-51.2-23.040-51.2-51.2v-409.6c0-28.16 23.040-51.2 51.2-51.2h307.2c28.16 0 51.2 23.040 51.2 51.2v307.2l-153.6 153.6zM614.4 396.8h-204.8v51.2h204.8v-51.2zM563.2 294.4h-153.6v51.2h153.6v-51.2zM537.6 524.8v140.8l140.8-140.8h-140.8z" />
<glyph unicode="&#xe666;" d="M42.667 746.582v0-597.165c0-94.387 76.397-170.751 170.751-170.751h597.165c94.387 0 170.751 76.397 170.751 170.751v597.165c0 94.387-76.397 170.751-170.751 170.751h-597.165c-94.387 0-170.751-76.397-170.751-170.751v0zM0 746.582c0 117.867 95.416 213.418 213.418 213.418h597.165c117.867 0 213.418-95.416 213.418-213.418v-597.165c0-117.867-95.416-213.418-213.418-213.418h-597.165c-117.867 0-213.418 95.416-213.418 213.418v597.165zM563.2 718.933h-204.8c-36.407 0-66.133-29.726-66.133-66.133v-409.6c0-36.407 29.726-66.133 66.133-66.133h307.2c36.407 0 66.133 29.726 66.133 66.133v313.386l-162.348 162.348h-6.186zM563.2 689.067l-10.559 4.374 153.6-153.6-4.374 10.559v-307.2c0-19.913-16.354-36.267-36.267-36.267h-307.2c-19.913 0-36.267 16.354-36.267 36.267v409.6c0 19.913 16.354 36.267 36.267 36.267h204.8zM614.4 411.733h-204.8l14.933-14.933v51.2l-14.933-14.933h204.8l-14.933 14.933v-51.2l14.933 14.933zM614.4 381.867h14.933v81.067h-234.667v-81.067h219.733zM563.2 309.333h-153.6l14.933-14.933v51.2l-14.933-14.933h153.6l-14.933 14.933v-51.2l14.933 14.933zM563.2 279.467h14.933v81.067h-183.467v-81.067h168.533zM552.533 524.8v140.8l-25.493-10.559 140.8-140.8 10.559 25.493h-140.8l14.933-14.933zM522.667 524.8v-14.933h191.786l-191.786 191.786v-176.852z" />
<glyph unicode="&#xe667;" d="M605.091 960h-409.6c-56.32 0-102.4-46.080-102.4-102.4v-819.2c0-56.32 46.080-102.4 102.4-102.4h614.4c56.32 0 102.4 46.080 102.4 102.4v614.4l-307.2 307.2zM707.491 345.6h-409.6v102.4h409.6v-102.4zM605.091 140.8h-307.2v102.4h307.2v-102.4zM553.891 601.6v281.6l281.6-281.6h-281.6z" />
<glyph unicode="&#xe668;" d="M512-64c-282.77 0-512 229.23-512 512s229.23 512 512 512c282.77 0 512-229.23 512-512s-229.23-512-512-512zM256 300.089v-108.089h108.089l312.889 315.733-108.089 108.089-312.889-315.733zM759.467 590.222c11.378 11.378 11.378 28.444 0 39.822l-65.422 65.422c-11.378 11.378-28.444 11.378-39.822 0l-51.2-51.2 108.089-108.089 48.356 54.044z" />
<glyph unicode="&#xe669;" d="M512-64c282.77 0 512 229.23 512 512s-229.23 512-512 512c-282.77 0-512-229.23-512-512s229.23-512 512-512v0zM512-23.040c-260.148 0-471.040 210.892-471.040 471.040s210.892 471.040 471.040 471.040c260.148 0 471.040-210.892 471.040-471.040s-210.892-471.040-471.040-471.040zM266.24 306.005v-103.765h103.765l300.373 303.104-103.765 103.765-300.373-303.104zM749.568 584.533c10.923 10.923 10.923 27.307 0 38.229l-62.805 62.805c-10.923 10.923-27.307 10.923-38.229 0l-49.152-49.152 103.765-103.765 46.421 51.883z" />
<glyph unicode="&#xe66a;" d="M0 746.582c0 117.867 95.416 213.418 213.418 213.418h597.165c117.867 0 213.418-95.416 213.418-213.418v-597.165c0-117.867-95.416-213.418-213.418-213.418h-597.165c-117.867 0-213.418 95.416-213.418 213.418v597.165zM256 300.089v-108.089h108.089l312.889 315.733-108.089 108.089-312.889-315.733zM759.467 590.222c11.378 11.378 11.378 28.444 0 39.822l-65.422 65.422c-11.378 11.378-28.444 11.378-39.822 0l-51.2-51.2 108.089-108.089 48.356 54.044z" />
<glyph unicode="&#xe66b;" d="M42.667 746.582v0-597.165c0-94.387 76.397-170.751 170.751-170.751h597.165c94.387 0 170.751 76.397 170.751 170.751v597.165c0 94.387-76.397 170.751-170.751 170.751h-597.165c-94.387 0-170.751-76.397-170.751-170.751v0zM0 746.582c0 117.867 95.416 213.418 213.418 213.418h597.165c117.867 0 213.418-95.416 213.418-213.418v-597.165c0-117.867-95.416-213.418-213.418-213.418h-597.165c-117.867 0-213.418 95.416-213.418 213.418v597.165zM256 300.089v-108.089h108.089l312.889 315.733-108.089 108.089-312.889-315.733zM759.467 590.222c11.378 11.378 11.378 28.444 0 39.822l-65.422 65.422c-11.378 11.378-28.444 11.378-39.822 0l-51.2-51.2 108.089-108.089 48.356 54.044z" />
<glyph unicode="&#xe66c;" d="M0 152.178v-216.178h216.178l625.778 631.467-216.178 216.178-625.778-631.467zM1006.933 732.444c22.756 22.756 22.756 56.889 0 79.644l-130.844 130.844c-22.756 22.756-56.889 22.756-79.644 0l-102.4-102.4 216.178-216.178 96.711 108.089z" />
<glyph unicode="&#xe66d;" d="M512-64c-282.77 0-512 229.23-512 512s229.23 512 512 512c282.77 0 512-229.23 512-512s-229.23-512-512-512zM716.8 652.8h-409.6c-28.16 0-51.2-23.040-51.2-51.2v-307.2c0-28.16 23.040-51.2 51.2-51.2h409.6c28.16 0 51.2 23.040 51.2 51.2v307.2c0 28.16-23.040 51.2-51.2 51.2zM716.8 550.4l-204.8-128-204.8 128v51.2l204.8-128 204.8 128v-51.2z" />
<glyph unicode="&#xe66e;" d="M512-64c282.77 0 512 229.23 512 512s-229.23 512-512 512c-282.77 0-512-229.23-512-512s229.23-512 512-512v0zM512-23.040c-260.148 0-471.040 210.892-471.040 471.040s210.892 471.040 471.040 471.040c260.148 0 471.040-210.892 471.040-471.040s-210.892-471.040-471.040-471.040zM708.608 644.608h-393.216c-27.034 0-49.152-22.118-49.152-49.152v-294.912c0-27.034 22.118-49.152 49.152-49.152h393.216c27.034 0 49.152 22.118 49.152 49.152v294.912c0 27.034-22.118 49.152-49.152 49.152zM708.608 546.304l-196.608-122.88-196.608 122.88v49.152l196.608-122.88 196.608 122.88v-49.152z" />
<glyph unicode="&#xe66f;" d="M0 746.582c0 117.867 95.416 213.418 213.418 213.418h597.165c117.867 0 213.418-95.416 213.418-213.418v-597.165c0-117.867-95.416-213.418-213.418-213.418h-597.165c-117.867 0-213.418 95.416-213.418 213.418v597.165zM716.8 652.8h-409.6c-28.16 0-51.2-23.040-51.2-51.2v-307.2c0-28.16 23.040-51.2 51.2-51.2h409.6c28.16 0 51.2 23.040 51.2 51.2v307.2c0 28.16-23.040 51.2-51.2 51.2zM716.8 550.4l-204.8-128-204.8 128v51.2l204.8-128 204.8 128v-51.2z" />
<glyph unicode="&#xe670;" d="M42.667 746.582v0-597.165c0-94.387 76.397-170.751 170.751-170.751h597.165c94.387 0 170.751 76.397 170.751 170.751v597.165c0 94.387-76.397 170.751-170.751 170.751h-597.165c-94.387 0-170.751-76.397-170.751-170.751v0zM0 746.582c0 117.867 95.416 213.418 213.418 213.418h597.165c117.867 0 213.418-95.416 213.418-213.418v-597.165c0-117.867-95.416-213.418-213.418-213.418h-597.165c-117.867 0-213.418 95.416-213.418 213.418v597.165zM716.8 652.8h-409.6c-28.16 0-51.2-23.040-51.2-51.2v-307.2c0-28.16 23.040-51.2 51.2-51.2h409.6c28.16 0 51.2 23.040 51.2 51.2v307.2c0 28.16-23.040 51.2-51.2 51.2zM716.8 550.4l-204.8-128-204.8 128v51.2l204.8-128 204.8 128v-51.2z" />
<glyph unicode="&#xe671;" d="M921.6 857.6h-819.2c-56.32 0-102.4-46.080-102.4-102.4v-614.4c0-56.32 46.080-102.4 102.4-102.4h819.2c56.32 0 102.4 46.080 102.4 102.4v614.4c0 56.32-46.080 102.4-102.4 102.4zM921.6 652.8l-409.6-256-409.6 256v102.4l409.6-256 409.6 256v-102.4z" />
<glyph unicode="&#xe672;" d="M512-64c-282.77 0-512 229.23-512 512s229.23 512 512 512c282.77 0 512-229.23 512-512s-229.23-512-512-512zM453.918 419.394c5.117-5.847 7.926-13.485 7.926-21.386v-232.826c0-14.012 16.104-21.123 25.635-11.273l61.856 74.431c8.278 10.43 12.843 15.593 12.843 25.916v143.699c0 7.901 2.86 15.539 7.926 21.387l177.491 202.221c13.294 15.171 3.061 39.77-16.605 39.77h-437.96c-19.666 0-29.95-24.547-16.605-39.77l177.492-202.169z" />
<glyph unicode="&#xe673;" d="M512-64c282.77 0 512 229.23 512 512s-229.23 512-512 512c-282.77 0-512-229.23-512-512s229.23-512 512-512v0zM512-23.040c-260.148 0-471.040 210.892-471.040 471.040s210.892 471.040 471.040 471.040c260.148 0 471.040-210.892 471.040-471.040s-210.892-471.040-471.040-471.040zM449.522 450.815c2.095-2.461 3.303-5.819 3.303-9.366v-209.603c0-25.985 30.669-39.871 48.807-20.602l54.926 67.871c6.959 9.007 7.816 10.178 9.961 14.153 3.153 5.843 4.677 11.811 4.677 18.766v129.366c0 3.508 1.228 6.905 3.352 9.424l155.378 181.977c19.825 23.256 4.533 60.958-26.141 60.958h-383.549c-30.685 0-46.003-37.665-26.147-60.951l155.433-181.994zM472.732 470.607l-155.441 182.004c-3.497 4.101-0.834 10.647 2.945 10.647h383.549c3.751 0 6.417-6.574 2.936-10.658l-155.432-182.041c-6.846-8.122-10.594-18.49-10.594-29.157v-129.366c0-1.871-0.254-2.865-1.018-4.281-0.979-1.815-1.725-2.833-7.050-9.73l-53.96-66.738c2.209 2.409 4.661 1.299 4.661 0.56v209.603c0 10.717-3.736 21.101-10.58 29.14l-0.015 0.018z" />
<glyph unicode="&#xe674;" d="M0 746.582c0 117.867 95.416 213.418 213.418 213.418h597.165c117.867 0 213.418-95.416 213.418-213.418v-597.165c0-117.867-95.416-213.418-213.418-213.418h-597.165c-117.867 0-213.418 95.416-213.418 213.418v597.165zM453.918 462.061c5.117-5.847 7.926-13.485 7.926-21.386v-232.826c0-14.012 16.104-21.123 25.635-11.273l61.856 74.431c8.278 10.43 12.843 15.593 12.843 25.916v143.699c0 7.901 2.86 15.539 7.926 21.387l177.491 202.221c13.294 15.171 3.061 39.77-16.605 39.77h-437.96c-19.666 0-29.95-24.547-16.605-39.77l177.492-202.169z" />
<glyph unicode="&#xe675;" d="M42.667 746.582v0-597.165c0-94.387 76.397-170.751 170.751-170.751h597.165c94.387 0 170.751 76.397 170.751 170.751v597.165c0 94.387-76.397 170.751-170.751 170.751h-597.165c-94.387 0-170.751-76.397-170.751-170.751v0zM0 746.582c0 117.867 95.416 213.418 213.418 213.418h597.165c117.867 0 213.418-95.416 213.418-213.418v-597.165c0-117.867-95.416-213.418-213.418-213.418h-597.165c-117.867 0-213.418 95.416-213.418 213.418v597.165zM446.918 450.933c2.182-2.563 3.441-6.061 3.441-9.757v-218.336c0-27.068 31.947-41.532 50.841-21.46l57.215 70.699c7.249 9.383 8.141 10.602 10.376 14.743 3.284 6.086 4.872 12.303 4.872 19.548v134.756c0 3.654 1.279 7.193 3.491 9.817l161.852 189.559c20.651 24.225 4.722 63.498-27.23 63.498h-399.53c-31.963 0-47.92-39.235-27.237-63.49l161.909-189.577zM471.096 471.549l-161.918 189.587c-3.642 4.271-0.869 11.091 3.068 11.091h399.53c3.907 0 6.685-6.848 3.058-11.102l-161.909-189.626c-7.132-8.46-11.036-19.26-11.036-30.372v-134.756c0-1.949-0.264-2.984-1.060-4.459-1.020-1.89-1.797-2.951-7.344-10.136l-56.208-69.519c2.301 2.51 4.855 1.353 4.855 0.583v218.336c0 11.164-3.892 21.98-11.021 30.354l-0.016 0.019z" />
<glyph unicode="&#xe676;" d="M388.363 476.122c10.234-11.694 15.853-26.97 15.853-42.773v-465.652c0-28.024 32.207-42.247 51.271-22.545l123.712 148.861c16.555 20.86 25.686 31.185 25.686 51.833v287.398c0 15.803 5.719 31.079 15.853 42.774l354.982 404.442c26.589 30.341 6.121 79.54-33.211 79.54h-875.92c-39.331 0-59.9-49.094-33.211-79.54l354.984-404.338z" />
<glyph unicode="&#xe677;" d="M512-64c-282.77 0-512 229.23-512 512s229.23 512 512 512c282.77 0 512-229.23 512-512s-229.23-512-512-512zM597.333 224v99.556h-170.667v-99.556h170.667zM213.333 672v-99.556h597.333v99.556h-597.333zM736 398.222v99.556h-448v-99.556h448z" />
<glyph unicode="&#xe678;" d="M512-64c282.77 0 512 229.23 512 512s-229.23 512-512 512c-282.77 0-512-229.23-512-512s229.23-512 512-512v0zM512-23.040c-260.148 0-471.040 210.892-471.040 471.040s210.892 471.040 471.040 471.040c260.148 0 471.040-210.892 471.040-471.040s-210.892-471.040-471.040-471.040zM593.92 232.96v95.573h-163.84v-95.573h163.84zM225.28 663.040v-95.573h573.44v95.573h-573.44zM727.040 400.213v95.573h-430.080v-95.573h430.080z" />
<glyph unicode="&#xe679;" d="M0 746.582c0 117.867 95.416 213.418 213.418 213.418h597.165c117.867 0 213.418-95.416 213.418-213.418v-597.165c0-117.867-95.416-213.418-213.418-213.418h-597.165c-117.867 0-213.418 95.416-213.418 213.418v597.165zM597.333 224v99.556h-170.667v-99.556h170.667zM213.333 672v-99.556h597.333v99.556h-597.333zM736 398.222v99.556h-448v-99.556h448z" />
<glyph unicode="&#xe67a;" d="M42.667 746.582v0-597.165c0-94.387 76.397-170.751 170.751-170.751h597.165c94.387 0 170.751 76.397 170.751 170.751v597.165c0 94.387-76.397 170.751-170.751 170.751h-597.165c-94.387 0-170.751-76.397-170.751-170.751v0zM0 746.582c0 117.867 95.416 213.418 213.418 213.418h597.165c117.867 0 213.418-95.416 213.418-213.418v-597.165c0-117.867-95.416-213.418-213.418-213.418h-597.165c-117.867 0-213.418 95.416-213.418 213.418v597.165zM597.333 224v99.556h-170.667v-99.556h170.667zM213.333 672v-99.556h597.333v99.556h-597.333zM736 398.222v99.556h-448v-99.556h448z" />
<glyph unicode="&#xe67b;" d="M398.222 106.667h227.556v113.778h-227.556v-113.778zM0 789.333v-113.778h1024v113.778h-1024zM170.667 391.111h682.667v113.778h-682.667v-113.778z" />
<glyph unicode="&#xe67c;" d="M512-64c-282.77 0-512 229.23-512 512s229.23 512 512 512c282.77 0 512-229.23 512-512s-229.23-512-512-512zM460.8 704h-153.6c-28.16 0-51.2-28.8-51.2-64v-384c0-35.2 23.040-64 51.2-64h409.6c28.16 0 51.2 28.8 51.2 64v320c0 35.2-23.040 64-51.2 64h-204.8l-51.2 64z" />
<glyph unicode="&#xe67d;" d="M512-64c282.77 0 512 229.23 512 512s-229.23 512-512 512c-282.77 0-512-229.23-512-512s229.23-512 512-512v0zM512-23.040c-260.148 0-471.040 210.892-471.040 471.040s210.892 471.040 471.040 471.040c260.148 0 471.040-210.892 471.040-471.040s-210.892-471.040-471.040-471.040zM315.392 652.8c-2.15 0-8.192-7.552-8.192-20.48v-368.64c0-12.928 6.042-20.48 8.192-20.48h393.216c2.15 0 8.192 7.552 8.192 20.48v307.2c0 12.928-6.042 20.48-8.192 20.48h-216.294l-61.45 76.812 31.984-15.372h-147.456zM315.392 693.76v0h147.456l49.152-61.44h196.608c27.034 0 49.152-27.648 49.152-61.44v-307.2c0-33.792-22.118-61.44-49.152-61.44h-393.216c-27.034 0-49.152 27.648-49.152 61.44v368.64c0 33.792 22.118 61.44 49.152 61.44v0z" />
<glyph unicode="&#xe67e;" d="M0 746.582c0 117.867 95.416 213.418 213.418 213.418h597.165c117.867 0 213.418-95.416 213.418-213.418v-597.165c0-117.867-95.416-213.418-213.418-213.418h-597.165c-117.867 0-213.418 95.416-213.418 213.418v597.165zM460.8 704h-153.6c-28.16 0-51.2-28.8-51.2-64v-384c0-35.2 23.040-64 51.2-64h409.6c28.16 0 51.2 28.8 51.2 64v320c0 35.2-23.040 64-51.2 64h-204.8l-51.2 64z" />
<glyph unicode="&#xe67f;" d="M42.667 746.582v0-597.165c0-94.387 76.397-170.751 170.751-170.751h597.165c94.387 0 170.751 76.397 170.751 170.751v597.165c0 94.387-76.397 170.751-170.751 170.751h-597.165c-94.387 0-170.751-76.397-170.751-170.751v0zM0 746.582c0 117.867 95.416 213.418 213.418 213.418h597.165c117.867 0 213.418-95.416 213.418-213.418v-597.165c0-117.867-95.416-213.418-213.418-213.418h-597.165c-117.867 0-213.418 95.416-213.418 213.418v597.165zM460.8 661.333h-153.6c-2.24 0-8.533-7.867-8.533-21.333v-384c0-13.467 6.293-21.333 8.533-21.333h409.6c2.24 0 8.533 7.867 8.533 21.333v320c0 13.467-6.293 21.333-8.533 21.333h-225.307l-64.010 80.013 33.317-16.013zM460.8 704v0l51.2-64h204.8c28.16 0 51.2-28.8 51.2-64v-320c0-35.2-23.040-64-51.2-64h-409.6c-28.16 0-51.2 28.8-51.2 64v384c0 35.2 23.040 64 51.2 64h153.6z" />
<glyph unicode="&#xe680;" d="M409.6 960h-307.2c-56.32 0-102.4-57.6-102.4-128v-768c0-70.4 46.080-128 102.4-128h819.2c56.32 0 102.4 57.6 102.4 128v640c0 70.4-46.080 128-102.4 128h-409.6l-102.4 128z" />
<glyph unicode="&#xe681;" d="M512-64c-282.77 0-512 229.23-512 512s229.23 512 512 512c282.77 0 512-229.23 512-512s-229.23-512-512-512zM316.444 413.867v-113.778l199.111-108.089 199.111 108.089v113.778l-199.111-108.089-199.111 108.089zM515.556 704l-312.889-170.667 312.889-170.667 256 139.378v-196.267h56.889v227.556l-312.889 170.667z" />
<glyph unicode="&#xe682;" d="M512-64c282.77 0 512 229.23 512 512s-229.23 512-512 512c-282.77 0-512-229.23-512-512s229.23-512 512-512v0zM512-23.040c-260.148 0-471.040 210.892-471.040 471.040s210.892 471.040 471.040 471.040c260.148 0 471.040-210.892 471.040-471.040s-210.892-471.040-471.040-471.040zM320.853 415.232v-109.227l191.147-103.765 191.147 103.765v109.227l-191.147-103.765-191.147 103.765zM512 693.76l-300.373-163.84 300.373-163.84 245.76 133.803v-188.416h54.613v218.453l-300.373 163.84z" />
<glyph unicode="&#xe683;" d="M0 746.582c0 117.867 95.416 213.418 213.418 213.418h597.165c117.867 0 213.418-95.416 213.418-213.418v-597.165c0-117.867-95.416-213.418-213.418-213.418h-597.165c-117.867 0-213.418 95.416-213.418 213.418v597.165zM312.889 413.867v-113.778l199.111-108.089 199.111 108.089v113.778l-199.111-108.089-199.111 108.089zM512 704l-312.889-170.667 312.889-170.667 256 139.378v-196.267h56.889v227.556l-312.889 170.667z" />
<glyph unicode="&#xe684;" d="M42.667 746.582v0-597.165c0-94.387 76.397-170.751 170.751-170.751h597.165c94.387 0 170.751 76.397 170.751 170.751v597.165c0 94.387-76.397 170.751-170.751 170.751h-597.165c-94.387 0-170.751-76.397-170.751-170.751v0zM0 746.582c0 117.867 95.416 213.418 213.418 213.418h597.165c117.867 0 213.418-95.416 213.418-213.418v-597.165c0-117.867-95.416-213.418-213.418-213.418h-597.165c-117.867 0-213.418 95.416-213.418 213.418v597.165zM312.889 413.867v-113.778l199.111-108.089 199.111 108.089v113.778l-199.111-108.089-199.111 108.089zM512 704l-312.889-170.667 312.889-170.667 256 139.378v-196.267h56.889v227.556l-312.889 170.667z" />
<glyph unicode="&#xe685;" d="M186.182 399.903v-186.182l325.818-176.873 325.818 176.873v186.182l-325.818-176.873-325.818 176.873zM512 874.667l-512-279.273 512-279.273 418.909 228.073v-321.164h93.091v372.364l-512 279.273z" />
<glyph unicode="&#xe686;" d="M512-64c-282.77 0-512 229.23-512 512s229.23 512 512 512c282.77 0 512-229.23 512-512s-229.23-512-512-512zM660.591 375.838c-50.087 0-90.157-13.357-120.209-30.052 46.748-40.070 66.783-86.817 70.122-90.157l3.339-6.678v-73.461h267.13v66.783c-3.339 0-56.765 133.565-220.383 133.565zM660.591 442.62c64.545 0 116.87 52.324 116.87 116.87s-52.324 116.87-116.87 116.87c-64.545 0-116.87-52.324-116.87-116.87s52.324-116.87 116.87-116.87zM243.2 559.49c0-63.443 53.426-116.87 116.87-116.87s116.87 53.426 116.87 116.87c0 63.443-53.426 116.87-116.87 116.87s-116.87-53.426-116.87-116.87zM360.070 375.838c-163.617 0-217.043-133.565-217.043-133.565v-66.783h434.087v66.783c0 0-53.426 133.565-217.043 133.565z" />
<glyph unicode="&#xe687;" d="M512-21.333v0c259.206 0 469.333 210.128 469.333 469.333s-210.128 469.333-469.333 469.333c-259.206 0-469.333-210.128-469.333-469.333s210.128-469.333 469.333-469.333v0zM512-64c-282.77 0-512 229.23-512 512s229.23 512 512 512c282.77 0 512-229.23 512-512s-229.23-512-512-512zM660.591 515.71v0c40.981 0 74.203 33.222 74.203 74.203s-33.222 74.203-74.203 74.203c-40.981 0-74.203-33.222-74.203-74.203s33.222-74.203 74.203-74.203v0zM660.591 473.043v0c-64.545 0-116.87 52.324-116.87 116.87s52.324 116.87 116.87 116.87c64.545 0 116.87-52.324 116.87-116.87s-52.324-116.87-116.87-116.87v0zM285.867 589.913v0c0-39.879 34.324-74.203 74.203-74.203s74.203 34.324 74.203 74.203c0 39.879-34.324 74.203-74.203 74.203s-74.203-34.324-74.203-74.203v0zM243.2 589.913c0 63.443 53.426 116.87 116.87 116.87s116.87-53.426 116.87-116.87c0-63.443-53.426-116.87-116.87-116.87s-116.87 53.426-116.87 116.87v0zM360.070 363.594v0c-59.855 0-105.314-20.317-139.896-54.473-12.133-11.983-22.010-24.852-29.724-37.62-4.407-7.294-6.961-12.533-7.808-14.652l3.052 15.846v-66.783l-42.667 42.667h434.087l-42.667-42.667v66.783l3.052-15.846c-0.848 2.119-3.401 7.358-7.808 14.652-7.714 12.768-17.591 25.637-29.724 37.62-34.583 34.156-80.042 54.473-139.896 54.473v0zM360.070 406.261c163.617 0 217.043-133.565 217.043-133.565v-66.783h-434.087v66.783c0 0 53.426 133.565 217.043 133.565zM583.526 394.683c1.672-1.645 3.325-3.307 4.957-4.987 17.317-17.821 31.552-36.594 43.861-56.32 3.988-6.391 7.080-11.717 11.001-18.746 1.702-3.056 1.702-3.056 2.554-4.551-1.251 2.15-1.708 2.847-5.022 6.16l4.896-4.896 10.94-21.88v-83.533l-42.667 42.667h267.13l-42.667-42.667v66.783h42.667v-42.667c-25.473 0-69.786 69.059-79.882 78.909-35.261 34.401-80.666 54.656-140.501 54.656-33.388 0-63.043-6.924-88.893-19.226-8.738 10.475-19.118 21.385-31.316 31.84 12.563 6.979 26.876 13.375 42.941 18.456v0zM881.177 272.714v-66.783h-267.13v73.461l-3.339 6.678c-2.228 2.228-11.891 23.785-31.964 49.789-10.008 12.965-22.605 27.036-38.158 40.367 30.052 16.696 70.122 30.052 120.209 30.052 163.617 0 217.043-133.565 220.383-133.565z" />
<glyph unicode="&#xe688;" d="M690.087 388.638c-66.783 0-120.209-17.809-160.278-40.070 62.33-53.426 89.043-115.757 93.496-120.209l4.452-8.904v-97.948h356.174v89.043c-4.452 0-75.687 178.087-293.843 178.087zM690.087 477.681c86.060 0 155.826 69.766 155.826 155.826s-69.766 155.826-155.826 155.826c-86.060 0-155.826-69.766-155.826-155.826s69.766-155.826 155.826-155.826zM133.565 633.507c0 84.591 71.235 155.826 155.826 155.826s155.826-71.235 155.826-155.826c0-84.591-71.235-155.826-155.826-155.826s-155.826 71.235-155.826 155.826zM289.391 388.638c-218.157 0-289.391-178.087-289.391-178.087v-89.043h578.783v89.043c0 0-71.235 178.087-289.391 178.087v0z" />
<glyph unicode="&#xe689;" d="M571.97 367.981c3.916-3.714 7.75-7.504 11.503-11.366 22.325-22.975 40.706-47.215 56.615-72.711 5.172-8.288 9.189-15.208 14.314-24.394 2.263-4.065 2.933-5.26 3.533-6.292-0.978 1.68-1.26 2.111-4.46 5.311l4.896-4.896 12.053-24.106v-108.020l-42.667 42.667h356.174l-42.667-42.667v89.043h42.667v-42.667c-31.177 10.67-31.177 10.67-33.815 16.377-2.637 3.511-2.637 3.511-3.949 5.59-1.125 1.79-2.178 3.592-4.181 7.084-4.481 7.793-7.176 12.318-11.078 18.4-12.156 18.944-26.297 36.883-43.555 53.719-49.561 48.352-113.593 76.917-197.266 76.917-48.203 0-91.011-10.368-128.18-28.733-3.109 3.441-6.35 6.899-9.727 10.355l3.413 33.752c5.279 2.315 10.738 4.535 16.377 6.637v0zM690.087 388.638v0c218.157 0 289.391-178.087 293.843-178.087v-89.043h-356.174v97.948l-4.452 8.904c-4.452 4.452-31.165 66.783-93.496 120.209 40.070 22.261 93.496 40.070 160.278 40.070v0zM690.087 520.348v0c62.496 0 113.159 50.663 113.159 113.159s-50.663 113.159-113.159 113.159c-62.496 0-113.159-50.663-113.159-113.159s50.663-113.159 113.159-113.159v0zM690.087 477.681v0c-86.060 0-155.826 69.766-155.826 155.826s69.766 155.826 155.826 155.826c86.060 0 155.826-69.766 155.826-155.826s-69.766-155.826-155.826-155.826v0zM176.232 633.507v0c0-61.027 52.132-113.159 113.159-113.159s113.159 52.132 113.159 113.159c0 61.027-52.132 113.159-113.159 113.159s-113.159-52.132-113.159-113.159v0zM133.565 633.507c0 84.591 71.235 155.826 155.826 155.826s155.826-71.235 155.826-155.826c0-84.591-71.235-155.826-155.826-155.826s-155.826 71.235-155.826 155.826v0zM289.391 345.971v0c-83.716 0-147.853-28.665-196.522-76.734-17.063-16.853-30.944-34.939-41.811-52.924-6.298-10.425-10.039-18.098-11.443-21.608l3.052 15.846v-89.043l-42.667 42.667h578.783l-42.667-42.667v89.043l3.052-15.846c-1.404 3.51-5.145 11.184-11.443 21.608-10.866 17.985-24.747 36.072-41.811 52.924-48.67 48.069-112.807 76.734-196.522 76.734v0zM289.391 388.638v0c218.157 0 289.391-178.087 289.391-178.087v-89.043h-578.783v89.043c0 0 71.235 178.087 289.391 178.087v0z" />
<glyph unicode="&#xe68a;" d="M512-64c-282.77 0-512 229.23-512 512s229.23 512 512 512c282.77 0 512-229.23 512-512s-229.23-512-512-512zM512 596.211c74.473 0 132.987-59.284 132.987-134.737 0-16.168-2.66-35.032-10.639-48.505l77.132-78.147c39.896 35.032 71.813 78.147 90.431 126.653-45.216 118.568-159.584 202.105-292.571 202.105-37.236 0-71.813-8.084-106.39-18.863l58.514-59.284c15.958 8.084 34.577 10.779 50.535 10.779zM246.026 668.968l71.813-72.758c-45.216-35.032-79.792-80.842-98.41-134.737 45.216-118.568 159.584-202.105 292.571-202.105 39.896 0 79.792 8.084 117.029 21.558l87.771-88.926 34.577 35.032-470.774 476.968-34.577-35.032zM392.312 520.758l39.896-40.421v-18.863c0-45.811 34.577-80.842 79.792-80.842 5.319 0 10.639 0 18.618 2.695l39.896-40.421c-18.618-10.779-37.236-16.168-58.514-16.168-74.473 0-132.987 59.284-132.987 134.737 0 21.558 5.319 40.421 13.299 59.284zM506.681 542.316l82.452-83.537v5.389c0 45.811-34.577 80.842-79.792 80.842 0-2.695 0-2.695-2.66-2.695z" />
<glyph unicode="&#xe68b;" d="M512-64c282.77 0 512 229.23 512 512s-229.23 512-512 512c-282.77 0-512-229.23-512-512s229.23-512 512-512v0zM512-23.040c-260.148 0-471.040 210.892-471.040 471.040s210.892 471.040 471.040 471.040c260.148 0 471.040-210.892 471.040-471.040s-210.892-471.040-471.040-471.040zM512 590.282c71.494 0 127.668-56.913 127.668-129.347 0-15.522-2.553-33.63-10.213-46.565l74.047-75.021c38.3 33.63 68.94 75.021 86.814 121.587-43.407 113.826-153.201 194.021-280.869 194.021-35.747 0-68.94-7.761-102.134-18.109l56.174-56.913c15.32 7.761 33.194 10.348 48.514 10.348zM256.665 660.13l68.94-69.848c-43.407-33.63-76.601-77.608-94.474-129.347 43.407-113.826 153.201-194.021 280.869-194.021 38.3 0 76.601 7.761 112.347 20.696l84.261-85.369 33.194 33.63-451.943 457.89-33.194-33.63zM397.099 517.848l38.3-38.804v-18.109c0-43.978 33.194-77.608 76.601-77.608 5.107 0 10.213 0 17.873 2.587l38.3-38.804c-17.873-10.348-35.747-15.522-56.174-15.522-71.494 0-127.668 56.913-127.668 129.347 0 20.696 5.107 38.804 12.767 56.913v0zM506.893 538.543l79.154-80.195v5.174c0 43.978-33.194 77.608-76.601 77.608 0-2.587 0-2.587-2.553-2.587v0z" />
<glyph unicode="&#xe68c;" d="M0 746.582c0 117.867 95.416 213.418 213.418 213.418h597.165c117.867 0 213.418-95.416 213.418-213.418v-597.165c0-117.867-95.416-213.418-213.418-213.418h-597.165c-117.867 0-213.418 95.416-213.418 213.418v597.165zM512 596.211c74.473 0 132.987-59.284 132.987-134.737 0-16.168-2.66-35.032-10.639-48.505l77.132-78.147c39.896 35.032 71.813 78.147 90.431 126.653-45.216 118.568-159.584 202.105-292.571 202.105-37.236 0-71.813-8.084-106.39-18.863l58.514-59.284c15.958 8.084 34.577 10.779 50.535 10.779zM246.026 668.968l71.813-72.758c-45.216-35.032-79.792-80.842-98.41-134.737 45.216-118.568 159.584-202.105 292.571-202.105 39.896 0 79.792 8.084 117.029 21.558l87.771-88.926 34.577 35.032-470.774 476.968-34.577-35.032zM392.312 520.758l39.896-40.421v-18.863c0-45.811 34.577-80.842 79.792-80.842 5.319 0 10.639 0 18.618 2.695l39.896-40.421c-18.618-10.779-37.236-16.168-58.514-16.168-74.473 0-132.987 59.284-132.987 134.737 0 21.558 5.319 40.421 13.299 59.284zM506.681 542.316l82.452-83.537v5.389c0 45.811-34.577 80.842-79.792 80.842 0-2.695 0-2.695-2.66-2.695z" />
<glyph unicode="&#xe68d;" d="M33.032 794.908v0-693.816c0-73.103 59.023-132.060 132.060-132.060h693.816c73.103 0 132.060 59.023 132.060 132.060v693.816c0 73.103-59.023 132.060-132.060 132.060h-693.816c-73.103 0-132.060-59.023-132.060-132.060v0zM0 794.908c0 91.178 73.644 165.092 165.092 165.092h693.816c91.178 0 165.092-73.644 165.092-165.092v-693.816c0-91.178-73.644-165.092-165.092-165.092h-693.816c-91.178 0-165.092 73.644-165.092 165.092v693.816zM512 596.211c74.473 0 132.987-59.284 132.987-134.737 0-16.168-2.66-35.032-10.639-48.505l77.132-78.147c39.896 35.032 71.813 78.147 90.431 126.653-45.216 118.568-159.584 202.105-292.571 202.105-37.236 0-71.813-8.084-106.39-18.863l58.514-59.284c15.958 8.084 34.577 10.779 50.535 10.779zM246.026 668.968l71.813-72.758c-45.216-35.032-79.792-80.842-98.41-134.737 45.216-118.568 159.584-202.105 292.571-202.105 39.896 0 79.792 8.084 117.029 21.558l87.771-88.926 34.577 35.032-470.774 476.968-34.577-35.032zM392.312 520.758l39.896-40.421v-18.863c0-45.811 34.577-80.842 79.792-80.842 5.319 0 10.639 0 18.618 2.695l39.896-40.421c-18.618-10.779-37.236-16.168-58.514-16.168-74.473 0-132.987 59.284-132.987 134.737 0 21.558 5.319 40.421 13.299 59.284zM506.681 542.316l82.452-83.537v5.389c0 45.811-34.577 80.842-79.792 80.842 0-2.695 0-2.695-2.66-2.695z" />
<glyph unicode="&#xe68e;" d="M512 709.818c130.327 0 232.727-102.4 232.727-232.727 0-27.927-4.655-60.509-18.618-83.782l134.982-134.982c69.818 60.509 125.673 134.982 158.255 218.764-79.127 204.8-279.273 349.091-512 349.091-65.164 0-125.673-13.964-186.182-32.582l102.4-102.4c27.927 13.964 60.509 18.618 88.436 18.618v0zM46.545 835.491l125.673-125.673c-79.127-60.509-139.636-139.636-172.218-232.727 79.127-204.8 279.273-349.091 512-349.091 69.818 0 139.636 13.964 204.8 37.236l153.6-153.6 60.509 60.509-823.855 823.855-60.509-60.509zM302.545 579.491l69.818-69.818v-32.582c0-79.127 60.509-139.636 139.636-139.636 9.309 0 18.618 0 32.582 4.655l69.818-69.818c-32.582-18.618-65.164-27.927-102.4-27.927-130.327 0-232.727 102.4-232.727 232.727 0 37.236 9.309 69.818 23.273 102.4v0zM502.691 616.727l144.291-144.291v9.309c0 79.127-60.509 139.636-139.636 139.636 0-4.655 0-4.655-4.655-4.655v0z" />
<glyph unicode="&#xe68f;" d="M512-64c-282.77 0-512 229.23-512 512s229.23 512 512 512c282.77 0 512-229.23 512-512s-229.23-512-512-512zM454.4 192v180.706h115.2v-180.706h144v240.941h86.4l-288 271.059-288-271.059h86.4v-240.941h144z" />
<glyph unicode="&#xe690;" d="M512-64c282.77 0 512 229.23 512 512s-229.23 512-512 512c-282.77 0-512-229.23-512-512s229.23-512 512-512v0zM512-23.040c-260.148 0-471.040 210.892-471.040 471.040s210.892 471.040 471.040 471.040c260.148 0 471.040-210.892 471.040-471.040s-210.892-471.040-471.040-471.040v0zM477.184 202.24v173.478l-20.48-20.48h110.592l-20.48 20.48v-193.958h179.2v251.784l-20.48-20.48h134.586l-328.122 308.821-328.122-308.821h134.586l-20.48 20.48v-251.784h179.2v20.48zM436.224 202.24l20.48 20.48h-138.24l20.48-20.48v251.784h-103.424l14.036-35.394 276.48 260.216h-28.073l276.48-260.216 14.036 35.394h-103.424v-251.784l20.48 20.48h-138.24l20.48-20.48v193.958h-151.552v-193.958z" />
<glyph unicode="&#xe691;" d="M409.6 25.6v307.2h204.8v-307.2h256v409.6h153.6l-512 460.8-512-460.8h153.6v-409.6h256z" />
<glyph unicode="&#xe692;" d="M413.506 320.088h182.044l-18.963 18.963v-292.030h265.481v383.052l-18.963-18.963h185.95l-504.528 454.075-504.528-454.075h185.95l-18.963 18.963v-383.052h265.481v292.030l-18.963-18.963zM413.506 358.014h-18.963v-292.030l18.963 18.963h-227.556l18.963-18.963v383.052h-155.496l12.686-33.058 455.111 409.6h-25.371l455.111-409.6 12.686 33.058h-155.496v-383.052l18.963 18.963h-227.556l18.963-18.963v292.030h-201.007z" />
<glyph unicode="&#xe693;" d="M512-64c-282.77 0-512 229.23-512 512s229.23 512 512 512c282.77 0 512-229.23 512-512s-229.23-512-512-512zM746.667 265.481v365.037c0 28.681-23.467 52.148-52.148 52.148h-365.037c-28.681 0-52.148-23.467-52.148-52.148v-365.037c0-28.681 23.467-52.148 52.148-52.148h365.037c28.681 0 52.148 23.467 52.148 52.148zM420.741 408.889l65.185-78.222 91.259 117.333 117.333-156.444h-365.037l91.259 117.333z" />
<glyph unicode="&#xe694;" d="M512-64c282.77 0 512 229.23 512 512s-229.23 512-512 512c-282.77 0-512-229.23-512-512s229.23-512 512-512v0zM512-23.040c-260.148 0-471.040 210.892-471.040 471.040s210.892 471.040 471.040 471.040c260.148 0 471.040-210.892 471.040-471.040s-210.892-471.040-471.040-471.040zM737.28 272.782v350.436c0 27.534-22.528 50.062-50.062 50.062h-350.436c-27.534 0-50.062-22.528-50.062-50.062v-350.436c0-27.534 22.528-50.062 50.062-50.062h350.436c27.534 0 50.062 22.528 50.062 50.062zM424.391 410.453l62.578-75.093 87.609 112.64 112.64-150.187h-350.436l87.609 112.64z" />
<glyph unicode="&#xe695;" d="M0 746.582c0 117.867 95.416 213.418 213.418 213.418h597.165c117.867 0 213.418-95.416 213.418-213.418v-597.165c0-117.867-95.416-213.418-213.418-213.418h-597.165c-117.867 0-213.418 95.416-213.418 213.418v597.165zM746.667 265.481v365.037c0 28.681-23.467 52.148-52.148 52.148h-365.037c-28.681 0-52.148-23.467-52.148-52.148v-365.037c0-28.681 23.467-52.148 52.148-52.148h365.037c28.681 0 52.148 23.467 52.148 52.148zM420.741 408.889l65.185-78.222 91.259 117.333 117.333-156.444h-365.037l91.259 117.333z" />
<glyph unicode="&#xe696;" d="M42.667 746.582v0-597.165c0-94.387 76.397-170.751 170.751-170.751h597.165c94.387 0 170.751 76.397 170.751 170.751v597.165c0 94.387-76.397 170.751-170.751 170.751h-597.165c-94.387 0-170.751-76.397-170.751-170.751v0zM0 746.582c0 117.867 95.416 213.418 213.418 213.418h597.165c117.867 0 213.418-95.416 213.418-213.418v-597.165c0-117.867-95.416-213.418-213.418-213.418h-597.165c-117.867 0-213.418 95.416-213.418 213.418v597.165zM746.667 265.481v365.037c0 28.681-23.467 52.148-52.148 52.148h-365.037c-28.681 0-52.148-23.467-52.148-52.148v-365.037c0-28.681 23.467-52.148 52.148-52.148h365.037c28.681 0 52.148 23.467 52.148 52.148zM420.741 408.889l65.185-78.222 91.259 117.333 117.333-156.444h-365.037l91.259 117.333z" />
<glyph unicode="&#xe697;" d="M1024 49.778v796.444c0 62.578-51.2 113.778-113.778 113.778h-796.444c-62.578 0-113.778-51.2-113.778-113.778v-796.444c0-62.578 51.2-113.778 113.778-113.778h796.444c62.578 0 113.778 51.2 113.778 113.778zM312.889 362.667l142.222-170.667 199.111 256 256-341.333h-796.444l199.111 256z" />
<glyph unicode="&#xe698;" d="M512-64c282.77 0 512 229.23 512 512s-229.23 512-512 512c-282.77 0-512-229.23-512-512s229.23-512 512-512zM581.364 619.321h-138.729v84.679h138.729v-84.679zM442.636 542.95h138.729v-350.95h-138.729z" />
<glyph unicode="&#xe699;" d="M578.59 612.468h-133.18v81.292h133.18zM512-64c282.77 0 512 229.23 512 512s-229.23 512-512 512c-282.77 0-512-229.23-512-512s229.23-512 512-512zM445.41 539.152h133.18v-336.912h-133.18v336.912zM512-23.040c-260.148 0-471.040 210.892-471.040 471.040s210.892 471.040 471.040 471.040c260.148 0 471.040-210.892 471.040-471.040s-210.892-471.040-471.040-471.040v0z" />
<glyph unicode="&#xe69a;" d="M0 557.714h1024v-219.429h-1024v219.429z" />
<glyph unicode="&#xe69b;" d="M512-64c-282.77 0-512 229.23-512 512s229.23 512 512 512c282.77 0 512-229.23 512-512s-229.23-512-512-512zM256 380.484h120.471v135.033h-120.471v-135.033zM256 211.692h120.471v135.033h-120.471v-135.033zM256 549.275h120.471v135.033h-120.471v-135.033zM406.588 380.484h361.412v135.033h-361.412v-135.033zM406.588 211.692h361.412v135.033h-361.412v-135.033zM406.588 684.308v-135.033h361.412v135.033h-361.412z" />
<glyph unicode="&#xe69c;" d="M512-64c282.77 0 512 229.23 512 512s-229.23 512-512 512c-282.77 0-512-229.23-512-512s229.23-512 512-512v0zM512-32.97c-265.632 0-480.97 215.337-480.97 480.97s215.337 480.97 480.97 480.97c265.632 0 480.97-215.337 480.97-480.97s-215.337-480.97-480.97-480.97zM256 385.306h120.471v125.388h-120.471v-125.388zM256 228.571h120.471v125.388h-120.471v-125.388zM256 542.041h120.471v125.388h-120.471v-125.388zM406.588 385.306h361.412v125.388h-361.412v-125.388zM406.588 228.571h361.412v125.388h-361.412v-125.388zM406.588 667.429v-125.388h361.412v125.388h-361.412z" />
<glyph unicode="&#xe69d;" d="M0 746.582c0 117.867 95.416 213.418 213.418 213.418h597.165c117.867 0 213.418-95.416 213.418-213.418v-597.165c0-117.867-95.416-213.418-213.418-213.418h-597.165c-117.867 0-213.418 95.416-213.418 213.418v597.165zM256 380.484h120.471v135.033h-120.471v-135.033zM256 211.692h120.471v135.033h-120.471v-135.033zM256 549.275h120.471v135.033h-120.471v-135.033zM406.588 380.484h361.412v135.033h-361.412v-135.033zM406.588 211.692h361.412v135.033h-361.412v-135.033zM406.588 684.308v-135.033h361.412v135.033h-361.412z" />
<glyph unicode="&#xe69e;" d="M33.032 794.908v0-693.816c0-73.103 59.023-132.060 132.060-132.060h693.816c73.103 0 132.060 59.023 132.060 132.060v693.816c0 73.103-59.023 132.060-132.060 132.060h-693.816c-73.103 0-132.060-59.023-132.060-132.060v0zM0 794.908c0 91.178 73.644 165.092 165.092 165.092h693.816c91.178 0 165.092-73.644 165.092-165.092v-693.816c0-91.178-73.644-165.092-165.092-165.092h-693.816c-91.178 0-165.092 73.644-165.092 165.092v693.816zM256 385.306h120.471v125.388h-120.471v-125.388zM256 228.571h120.471v125.388h-120.471v-125.388zM256 542.041h120.471v125.388h-120.471v-125.388zM406.588 385.306h361.412v125.388h-361.412v-125.388zM406.588 228.571h361.412v125.388h-361.412v-125.388zM406.588 667.429v-125.388h361.412v125.388h-361.412z" />
<glyph unicode="&#xe69f;" d="M512-64c-282.77 0-512 229.23-512 512s229.23 512 512 512c282.77 0 512-229.23 512-512s-229.23-512-512-512zM512 746.667c-116.48 0-209.067-92.587-209.067-209.067 0-155.307 209.067-388.267 209.067-388.267s209.067 232.96 209.067 388.267c0 116.48-92.587 209.067-209.067 209.067zM512 462.933c-41.813 0-74.667 32.853-74.667 74.667s32.853 74.667 74.667 74.667c41.813 0 74.667-32.853 74.667-74.667s-32.853-74.667-74.667-74.667z" />
<glyph unicode="&#xe6a0;" d="M512-64c282.77 0 512 229.23 512 512s-229.23 512-512 512c-282.77 0-512-229.23-512-512s229.23-512 512-512v0zM512-23.040c-260.148 0-471.040 210.892-471.040 471.040s210.892 471.040 471.040 471.040c260.148 0 471.040-210.892 471.040-471.040s-210.892-471.040-471.040-471.040zM512 734.72c-107.864 0-193.433-89.847-193.433-202.36 0-34.948 10.239-74.879 29.096-119.005 15.703-36.746 37.011-75.526 62.533-115.341 19.777-30.852 40.943-60.568 62.111-88.087 7.413-9.637 14.301-18.316 20.491-25.903 3.735-4.579 6.424-7.794 7.89-9.51l11.311-13.234 11.311 13.234c1.467 1.716 4.155 4.931 7.89 9.51 6.19 7.587 13.079 16.267 20.491 25.903 21.168 27.518 42.334 57.235 62.111 88.087 25.522 39.814 46.83 78.595 62.533 115.341 18.857 44.126 29.096 84.057 29.096 119.005 0 112.513-85.569 202.36-193.433 202.36zM512 704.961c91.095 0 163.674-76.207 163.674-172.601 0-30.335-9.291-66.568-26.702-107.311-14.985-35.066-35.526-72.449-60.222-110.975-19.282-30.080-39.964-59.118-60.645-86.002-7.234-9.404-13.947-17.862-19.962-25.235-3.588-4.398-6.131-7.439-7.454-8.987h22.622c-1.323 1.548-3.866 4.589-7.454 8.987-6.016 7.373-12.728 15.831-19.962 25.235-20.68 26.885-41.363 55.923-60.645 86.002-24.696 38.526-45.237 75.91-60.222 110.975-17.411 40.743-26.702 76.976-26.702 107.311 0 96.394 72.579 172.601 163.674 172.601v0zM512 480.282c-27.326 0-48.89 22.642-48.89 52.078s21.563 52.078 48.89 52.078c27.326 0 48.89-22.642 48.89-52.078s-21.563-52.078-48.89-52.078v0zM512 450.523c44.095 0 78.648 36.281 78.648 81.837s-34.553 81.837-78.648 81.837c-44.095 0-78.648-36.281-78.648-81.837s34.553-81.837 78.648-81.837v0z" />
<glyph unicode="&#xe6a1;" d="M0 746.582c0 117.867 95.416 213.418 213.418 213.418h597.165c117.867 0 213.418-95.416 213.418-213.418v-597.165c0-117.867-95.416-213.418-213.418-213.418h-597.165c-117.867 0-213.418 95.416-213.418 213.418v597.165zM512 746.667c-116.48 0-209.067-92.587-209.067-209.067 0-155.307 209.067-388.267 209.067-388.267s209.067 232.96 209.067 388.267c0 116.48-92.587 209.067-209.067 209.067zM512 462.933c-41.813 0-74.667 32.853-74.667 74.667s32.853 74.667 74.667 74.667c41.813 0 74.667-32.853 74.667-74.667s-32.853-74.667-74.667-74.667z" />
<glyph unicode="&#xe6a2;" d="M42.667 746.582v0-597.165c0-94.387 76.397-170.751 170.751-170.751h597.165c94.387 0 170.751 76.397 170.751 170.751v597.165c0 94.387-76.397 170.751-170.751 170.751h-597.165c-94.387 0-170.751-76.397-170.751-170.751v0zM0 746.582c0 117.867 95.416 213.418 213.418 213.418h597.165c117.867 0 213.418-95.416 213.418-213.418v-597.165c0-117.867-95.416-213.418-213.418-213.418h-597.165c-117.867 0-213.418 95.416-213.418 213.418v597.165zM512 746.667c-112.358 0-201.492-93.591-201.492-210.792 0-36.404 10.665-77.999 30.308-123.964 16.358-38.277 38.553-78.673 65.139-120.147 20.601-32.137 42.648-63.092 64.698-91.757 7.722-10.038 14.897-19.079 21.345-26.983 3.891-4.769 6.691-8.118 8.219-9.906l11.782-13.785 11.782 13.785c1.528 1.788 4.328 5.137 8.219 9.906 6.448 7.904 13.623 16.945 21.345 26.983 22.050 28.665 44.098 59.62 64.698 91.757 26.585 41.473 48.781 81.869 65.139 120.147 19.643 45.965 30.308 87.559 30.308 123.964 0 117.201-89.134 210.792-201.492 210.792zM512 715.668c94.891 0 170.493-79.383 170.493-179.793 0-31.599-9.678-69.342-27.814-111.782-15.61-36.527-37.006-75.468-62.731-115.599-20.085-31.333-41.63-61.581-63.172-89.586-7.536-9.796-14.528-18.606-20.794-26.287-3.737-4.581-6.386-7.749-7.765-9.362h23.564c-1.378 1.612-4.027 4.781-7.765 9.362-6.266 7.681-13.258 16.491-20.794 26.287-21.542 28.005-43.086 58.253-63.172 89.586-25.725 40.131-47.121 79.073-62.731 115.599-18.137 42.44-27.814 80.183-27.814 111.782 0 100.41 75.603 179.793 170.493 179.793v0zM512 481.627c-28.465 0-50.927 23.585-50.927 54.248s22.462 54.248 50.927 54.248c28.465 0 50.927-23.585 50.927-54.248s-22.462-54.248-50.927-54.248v0zM512 450.628c45.932 0 81.925 37.793 81.925 85.247s-35.993 85.247-81.925 85.247c-45.932 0-81.925-37.793-81.925-85.247s35.993-85.247 81.925-85.247v0z" />
<glyph unicode="&#xe6a3;" d="M507.733 960c-199.68 0-358.4-158.72-358.4-358.4 0-266.24 358.4-665.6 358.4-665.6s358.4 399.36 358.4 665.6c0 199.68-158.72 358.4-358.4 358.4zM507.733 473.6c-71.68 0-128 56.32-128 128s56.32 128 128 128c71.68 0 128-56.32 128-128s-56.32-128-128-128z" />
<glyph unicode="&#xe6a4;" d="M512-64c-282.77 0-512 229.23-512 512s229.23 512 512 512c282.77 0 512-229.23 512-512s-229.23-512-512-512zM288 522.667c-41.067 0-74.667-33.6-74.667-74.667s33.6-74.667 74.667-74.667c41.067 0 74.667 33.6 74.667 74.667s-33.6 74.667-74.667 74.667zM736 522.667c-41.067 0-74.667-33.6-74.667-74.667s33.6-74.667 74.667-74.667c41.067 0 74.667 33.6 74.667 74.667s-33.6 74.667-74.667 74.667zM512 522.667c-41.067 0-74.667-33.6-74.667-74.667s33.6-74.667 74.667-74.667c41.067 0 74.667 33.6 74.667 74.667s-33.6 74.667-74.667 74.667z" />
<glyph unicode="&#xe6a5;" d="M512-64c282.77 0 512 229.23 512 512s-229.23 512-512 512c-282.77 0-512-229.23-512-512s229.23-512 512-512v0zM512-23.040c-260.148 0-471.040 210.892-471.040 471.040s210.892 471.040 471.040 471.040c260.148 0 471.040-210.892 471.040-471.040s-210.892-471.040-471.040-471.040zM296.96 519.68c-39.424 0-71.68-32.256-71.68-71.68s32.256-71.68 71.68-71.68c39.424 0 71.68 32.256 71.68 71.68s-32.256 71.68-71.68 71.68zM727.040 519.68c-39.424 0-71.68-32.256-71.68-71.68s32.256-71.68 71.68-71.68c39.424 0 71.68 32.256 71.68 71.68s-32.256 71.68-71.68 71.68zM512 519.68c-39.424 0-71.68-32.256-71.68-71.68s32.256-71.68 71.68-71.68c39.424 0 71.68 32.256 71.68 71.68s-32.256 71.68-71.68 71.68z" />
<glyph unicode="&#xe6a6;" d="M0 746.582c0 117.867 95.416 213.418 213.418 213.418h597.165c117.867 0 213.418-95.416 213.418-213.418v-597.165c0-117.867-95.416-213.418-213.418-213.418h-597.165c-117.867 0-213.418 95.416-213.418 213.418v597.165zM288 522.667c-41.067 0-74.667-33.6-74.667-74.667s33.6-74.667 74.667-74.667c41.067 0 74.667 33.6 74.667 74.667s-33.6 74.667-74.667 74.667zM736 522.667c-41.067 0-74.667-33.6-74.667-74.667s33.6-74.667 74.667-74.667c41.067 0 74.667 33.6 74.667 74.667s-33.6 74.667-74.667 74.667zM512 522.667c-41.067 0-74.667-33.6-74.667-74.667s33.6-74.667 74.667-74.667c41.067 0 74.667 33.6 74.667 74.667s-33.6 74.667-74.667 74.667z" />
<glyph unicode="&#xe6a7;" d="M42.667 746.582v0-597.165c0-94.387 76.397-170.751 170.751-170.751h597.165c94.387 0 170.751 76.397 170.751 170.751v597.165c0 94.387-76.397 170.751-170.751 170.751h-597.165c-94.387 0-170.751-76.397-170.751-170.751v0zM0 746.582c0 117.867 95.416 213.418 213.418 213.418h597.165c117.867 0 213.418-95.416 213.418-213.418v-597.165c0-117.867-95.416-213.418-213.418-213.418h-597.165c-117.867 0-213.418 95.416-213.418 213.418v597.165zM288 522.667c-41.067 0-74.667-33.6-74.667-74.667s33.6-74.667 74.667-74.667c41.067 0 74.667 33.6 74.667 74.667s-33.6 74.667-74.667 74.667zM736 522.667c-41.067 0-74.667-33.6-74.667-74.667s33.6-74.667 74.667-74.667c41.067 0 74.667 33.6 74.667 74.667s-33.6 74.667-74.667 74.667zM512 522.667c-41.067 0-74.667-33.6-74.667-74.667s33.6-74.667 74.667-74.667c41.067 0 74.667 33.6 74.667 74.667s-33.6 74.667-74.667 74.667z" />
<glyph unicode="&#xe6a8;" d="M128 576c-70.4 0-128-57.6-128-128s57.6-128 128-128c70.4 0 128 57.6 128 128s-57.6 128-128 128zM896 576c-70.4 0-128-57.6-128-128s57.6-128 128-128c70.4 0 128 57.6 128 128s-57.6 128-128 128zM512 576c-70.4 0-128-57.6-128-128s57.6-128 128-128c70.4 0 128 57.6 128 128s-57.6 128-128 128z" />
<glyph unicode="&#xe6a9;" d="M512-64c-282.77 0-512 229.23-512 512s229.23 512 512 512c282.77 0 512-229.23 512-512s-229.23-512-512-512zM437.333 224c0-41.067 33.6-74.667 74.667-74.667s74.667 33.6 74.667 74.667c0 41.067-33.6 74.667-74.667 74.667s-74.667-33.6-74.667-74.667zM437.333 672c0-41.067 33.6-74.667 74.667-74.667s74.667 33.6 74.667 74.667c0 41.067-33.6 74.667-74.667 74.667s-74.667-33.6-74.667-74.667zM437.333 448c0-41.067 33.6-74.667 74.667-74.667s74.667 33.6 74.667 74.667c0 41.067-33.6 74.667-74.667 74.667s-74.667-33.6-74.667-74.667z" />
<glyph unicode="&#xe6aa;" d="M512-64c282.77 0 512 229.23 512 512s-229.23 512-512 512c-282.77 0-512-229.23-512-512s229.23-512 512-512v0zM512-23.040c-260.148 0-471.040 210.892-471.040 471.040s210.892 471.040 471.040 471.040c260.148 0 471.040-210.892 471.040-471.040s-210.892-471.040-471.040-471.040zM440.32 232.96c0-39.424 32.256-71.68 71.68-71.68s71.68 32.256 71.68 71.68c0 39.424-32.256 71.68-71.68 71.68s-71.68-32.256-71.68-71.68zM440.32 663.040c0-39.424 32.256-71.68 71.68-71.68s71.68 32.256 71.68 71.68c0 39.424-32.256 71.68-71.68 71.68s-71.68-32.256-71.68-71.68zM440.32 448c0-39.424 32.256-71.68 71.68-71.68s71.68 32.256 71.68 71.68c0 39.424-32.256 71.68-71.68 71.68s-71.68-32.256-71.68-71.68z" />
<glyph unicode="&#xe6ab;" d="M0 746.582c0 117.867 95.416 213.418 213.418 213.418h597.165c117.867 0 213.418-95.416 213.418-213.418v-597.165c0-117.867-95.416-213.418-213.418-213.418h-597.165c-117.867 0-213.418 95.416-213.418 213.418v597.165zM437.333 224c0-41.067 33.6-74.667 74.667-74.667s74.667 33.6 74.667 74.667c0 41.067-33.6 74.667-74.667 74.667s-74.667-33.6-74.667-74.667zM437.333 672c0-41.067 33.6-74.667 74.667-74.667s74.667 33.6 74.667 74.667c0 41.067-33.6 74.667-74.667 74.667s-74.667-33.6-74.667-74.667zM437.333 448c0-41.067 33.6-74.667 74.667-74.667s74.667 33.6 74.667 74.667c0 41.067-33.6 74.667-74.667 74.667s-74.667-33.6-74.667-74.667z" />
<glyph unicode="&#xe6ac;" d="M42.667 746.582v0-597.165c0-94.387 76.397-170.751 170.751-170.751h597.165c94.387 0 170.751 76.397 170.751 170.751v597.165c0 94.387-76.397 170.751-170.751 170.751h-597.165c-94.387 0-170.751-76.397-170.751-170.751v0zM0 746.582c0 117.867 95.416 213.418 213.418 213.418h597.165c117.867 0 213.418-95.416 213.418-213.418v-597.165c0-117.867-95.416-213.418-213.418-213.418h-597.165c-117.867 0-213.418 95.416-213.418 213.418v597.165zM437.333 224c0-41.067 33.6-74.667 74.667-74.667s74.667 33.6 74.667 74.667c0 41.067-33.6 74.667-74.667 74.667s-74.667-33.6-74.667-74.667zM437.333 672c0-41.067 33.6-74.667 74.667-74.667s74.667 33.6 74.667 74.667c0 41.067-33.6 74.667-74.667 74.667s-74.667-33.6-74.667-74.667zM437.333 448c0-41.067 33.6-74.667 74.667-74.667s74.667 33.6 74.667 74.667c0 41.067-33.6 74.667-74.667 74.667s-74.667-33.6-74.667-74.667z" />
<glyph unicode="&#xe6ad;" d="M384 64c0-70.4 57.6-128 128-128s128 57.6 128 128c0 70.4-57.6 128-128 128s-128-57.6-128-128zM384 832c0-70.4 57.6-128 128-128s128 57.6 128 128c0 70.4-57.6 128-128 128s-128-57.6-128-128zM384 448c0-70.4 57.6-128 128-128s128 57.6 128 128c0 70.4-57.6 128-128 128s-128-57.6-128-128z" />
<glyph unicode="&#xe6ae;" d="M512-64c-282.77 0-512 229.23-512 512s229.23 512 512 512c282.77 0 512-229.23 512-512s-229.23-512-512-512zM345.6 746.667c-42.289 0-76.8-34.511-76.8-76.8v-443.733c0-42.289 34.511-76.8 76.8-76.8h332.8c42.289 0 76.8 34.511 76.8 76.8v341.637l-178.897 178.897h-230.703zM345.6 704c-18.725 0-34.133-15.409-34.133-34.133v-443.733c0-18.725 15.409-34.133 34.133-34.133h332.8c18.725 0 34.133 15.409 34.133 34.133v332.8l6.248-15.085-166.4 166.4 15.085-6.248h-221.867zM512 656l152.533-152.533h-152.533v152.533z" />
<glyph unicode="&#xe6af;" d="M512-64c282.77 0 512 229.23 512 512s-229.23 512-512 512c-282.77 0-512-229.23-512-512s229.23-512 512-512v0zM512-23.040c-260.148 0-471.040 210.892-471.040 471.040s210.892 471.040 471.040 471.040c260.148 0 471.040-210.892 471.040-471.040s-210.892-471.040-471.040-471.040zM352.256 734.72c-40.597 0-73.728-33.131-73.728-73.728v-425.984c0-40.597 33.131-73.728 73.728-73.728h319.488c40.597 0 73.728 33.131 73.728 73.728v327.971l-171.741 171.741h-221.475zM352.256 693.76h212.992l-14.482 5.998 159.744-159.744-5.998 14.482v-319.488c0-17.976-14.792-32.768-32.768-32.768h-319.488c-17.976 0-32.768 14.792-32.768 32.768v425.984c0 17.976 14.792 32.768 32.768 32.768zM512 647.68v-146.432h146.432l-146.432 146.432z" />
<glyph unicode="&#xe6b0;" d="M0 746.582c0 117.867 95.416 213.418 213.418 213.418h597.165c117.867 0 213.418-95.416 213.418-213.418v-597.165c0-117.867-95.416-213.418-213.418-213.418h-597.165c-117.867 0-213.418 95.416-213.418 213.418v597.165zM345.6 746.667c-42.289 0-76.8-34.511-76.8-76.8v-443.733c0-42.289 34.511-76.8 76.8-76.8h332.8c42.289 0 76.8 34.511 76.8 76.8v341.637l-178.897 178.897h-230.703zM345.6 704c-18.725 0-34.133-15.409-34.133-34.133v-443.733c0-18.725 15.409-34.133 34.133-34.133h332.8c18.725 0 34.133 15.409 34.133 34.133v332.8l6.248-15.085-166.4 166.4 15.085-6.248h-221.867zM512 656l152.533-152.533h-152.533v152.533z" />
<glyph unicode="&#xe6b1;" d="M42.667 746.582v0-597.165c0-94.387 76.397-170.751 170.751-170.751h597.165c94.387 0 170.751 76.397 170.751 170.751v597.165c0 94.387-76.397 170.751-170.751 170.751h-597.165c-94.387 0-170.751-76.397-170.751-170.751v0zM0 746.582c0 117.867 95.416 213.418 213.418 213.418h597.165c117.867 0 213.418-95.416 213.418-213.418v-597.165c0-117.867-95.416-213.418-213.418-213.418h-597.165c-117.867 0-213.418 95.416-213.418 213.418v597.165zM345.6 746.667c-42.289 0-76.8-34.511-76.8-76.8v-443.733c0-42.289 34.511-76.8 76.8-76.8h332.8c42.289 0 76.8 34.511 76.8 76.8v341.637l-178.897 178.897h-230.703zM345.6 704h221.867l-15.085 6.248 166.4-166.4-6.248 15.085v-332.8c0-18.725-15.409-34.133-34.133-34.133h-332.8c-18.725 0-34.133 15.409-34.133 34.133v443.733c0 18.725 15.409 34.133 34.133 34.133zM512 656v-152.533h152.533l-152.533 152.533z" />
<glyph unicode="&#xe6b2;" d="M204.8 960c-56.32 0-102.4-46.080-102.4-102.4v-819.2c0-56.32 46.080-102.4 102.4-102.4h614.4c56.32 0 102.4 46.080 102.4 102.4v614.4l-307.2 307.2h-409.6zM563.2 601.6v281.6l281.6-281.6h-281.6z" />
<glyph unicode="&#xe6b3;" d="M620.202 282.57c-3.075-48.88-50.572-88.049-108.202-88.049s-105.127 39.169-108.202 88.049h-135.608v24.642l57.367 49.283v135.529c0 76.389 60.235 137.994 143.417 155.243v17.249c0 19.713 20.078 36.963 43.025 36.963s43.025-17.249 43.025-36.963v-17.249c83.182-17.249 143.417-78.853 143.417-155.243v-135.529l57.367-49.283v-24.642h-135.608zM512-64c282.77 0 512 229.23 512 512s-229.23 512-512 512c-282.77 0-512-229.23-512-512s229.23-512 512-512z" />
<glyph unicode="&#xe6b4;" d="M512-64c282.77 0 512 229.23 512 512s-229.23 512-512 512c-282.77 0-512-229.23-512-512s229.23-512 512-512v0zM512-23.040c-260.148 0-471.040 210.892-471.040 471.040s210.892 471.040 471.040 471.040c260.148 0 471.040-210.892 471.040-471.040s-210.892-471.040-471.040-471.040zM512 181.76c-67.893 0-124.505 48.636-124.505 109.847v20.48h249.011v-20.48c0-61.212-56.613-109.847-124.505-109.847zM512 222.72v0c46.535 0 83.545 31.795 83.545 68.887l20.48-20.48h-208.051l20.48 20.48c0-37.092 37.010-68.887 83.545-68.887zM711.465 362.575v130.108c0 82.484-63.758 150.373-154.002 169.086l-4.158-20.053h20.48v16.559c0 30.985-29.077 55.964-61.784 55.964s-61.784-24.979-61.784-55.964v-16.559h20.48l-4.158 20.053c-90.244-18.714-154.002-86.602-154.002-169.086v-130.108l7.134 15.535-62.207-53.441v-53.542h509.074v53.542l-62.207 53.441 7.134-15.535zM670.505 362.575v-9.406l62.207-53.441-7.134 15.535v-23.656l20.48 20.48h-468.114l20.48-20.48v23.656l-7.134-15.535 62.207 53.441v139.514c0 61.751 49.057 113.987 121.359 128.98l16.322 3.385v33.228c0 6.865 9.474 15.004 20.824 15.004s20.824-8.139 20.824-15.004v-33.228l16.322-3.385c72.302-14.993 121.359-67.229 121.359-128.98v-130.108z" />
<glyph unicode="&#xe6b5;" d="M508.952-64c119.196 0 216.72 83.782 216.72 186.182h-433.439c0-102.4 97.524-186.182 216.72-186.182zM881.838 270.032v271.059c0 152.779-120.471 275.987-286.835 310.486v34.498c0 39.427-40.157 73.925-86.050 73.925s-86.050-34.498-86.050-73.925v-34.498c-166.364-34.498-286.835-157.707-286.835-310.486v-271.059l-114.734-98.567v-49.283h975.238v49.283l-114.734 98.567z" />
<glyph unicode="&#xe6b6;" d="M509.074-64c125.107 0 228.531 88.851 228.531 199.215v20.48h-457.062v-20.48c0-110.364 103.424-199.215 228.531-199.215v0zM509.074-23.040c-103.749 0-187.571 72.010-187.571 158.255l-20.48-20.48h416.102l-20.48 20.48c0-86.244-83.822-158.255-187.571-158.255v0zM887.524 277.151v260.216c0 154.602-120.165 282.552-291.683 318.12l16.322-20.053v33.118c0 49.909-48.352 91.448-103.088 91.448s-103.088-41.539-103.088-91.448v-33.118l16.322 20.053c-171.518-35.567-291.683-163.518-291.683-318.12v-260.216l7.134 15.535-117.279-100.753v-77.198h977.189v77.198l-117.279 100.753 7.134-15.535zM846.564 277.151v-9.406l117.279-100.753-7.134 15.535v-47.312l20.48 20.48h-936.229l20.48-20.48v47.312l-7.134-15.535 117.279 100.753v269.622c0 133.869 105.465 246.166 259.040 278.013l16.322 3.385v49.787c0 25.79 28.749 50.488 62.128 50.488s62.128-24.698 62.128-50.488v-49.787l16.322-3.385c153.575-31.846 259.040-144.144 259.040-278.013v-260.216z" />
<glyph unicode="&#xe6b7;" d="M0 746.582c0 117.867 95.416 213.418 213.418 213.418h597.165c117.867 0 213.418-95.416 213.418-213.418v-597.165c0-117.867-95.416-213.418-213.418-213.418h-597.165c-117.867 0-213.418 95.416-213.418 213.418v597.165zM512 746.667c-116.48 0-209.067-92.587-209.067-209.067 0-155.307 209.067-388.267 209.067-388.267s209.067 232.96 209.067 388.267c0 116.48-92.587 209.067-209.067 209.067zM512 462.933c-41.813 0-74.667 32.853-74.667 74.667s32.853 74.667 74.667 74.667c41.813 0 74.667-32.853 74.667-74.667s-32.853-74.667-74.667-74.667z" />
<glyph unicode="&#xe6b8;" d="M512-64c-282.77 0-512 229.23-512 512s229.23 512 512 512c282.77 0 512-229.23 512-512s-229.23-512-512-512zM282.027 595.761l-68.693 72.309v-204.351h194.133l-83.627 88.028c38.827 78.596 113.493 132.042 203.093 132.042 122.453 0 224-106.891 224-235.789s-101.547-235.789-224-235.789c-98.56 0-179.2 66.021-212.053 157.193h-62.72c32.853-125.754 143.36-220.070 274.773-220.070 158.293 0 283.733 135.186 283.733 298.667s-128.427 298.667-283.733 298.667c-104.533 0-197.12-59.733-244.907-150.905z" />
<glyph unicode="&#xe6b9;" d="M512-64c282.77 0 512 229.23 512 512s-229.23 512-512 512c-282.77 0-512-229.23-512-512s229.23-512 512-512v0zM512-32.97c-265.632 0-480.97 215.337-480.97 480.97s215.337 480.97 480.97 480.97c265.632 0 480.97-215.337 480.97-480.97s-215.337-480.97-480.97-480.97zM526.933 746.667c-104.533 0-197.12-59.733-244.907-150.905l-68.693 72.309v-204.351h194.133l-83.627 88.028c38.827 78.596 113.493 132.042 203.093 132.042 122.453 0 224-106.891 224-235.789s-101.547-235.789-224-235.789c-98.56 0-179.2 66.021-212.053 157.193h-62.72c32.853-125.754 143.36-220.070 274.773-220.070 158.293 0 283.733 135.186 283.733 298.667s-128.427 298.667-283.733 298.667z" />
<glyph unicode="&#xe6ba;" d="M0 746.582c0 117.867 95.416 213.418 213.418 213.418h597.165c117.867 0 213.418-95.416 213.418-213.418v-597.165c0-117.867-95.416-213.418-213.418-213.418h-597.165c-117.867 0-213.418 95.416-213.418 213.418v597.165zM282.027 595.761l-68.693 72.309v-204.351h194.133l-83.627 88.028c38.827 78.596 113.493 132.042 203.093 132.042 122.453 0 224-106.891 224-235.789s-101.547-235.789-224-235.789c-98.56 0-179.2 66.021-212.053 157.193h-62.72c32.853-125.754 143.36-220.070 274.773-220.070 158.293 0 283.733 135.186 283.733 298.667s-128.427 298.667-283.733 298.667c-104.533 0-197.12-59.733-244.907-150.905z" />
<glyph unicode="&#xe6bb;" d="M33.032 794.908v0-693.816c0-73.103 59.023-132.060 132.060-132.060h693.816c73.103 0 132.060 59.023 132.060 132.060v693.816c0 73.103-59.023 132.060-132.060 132.060h-693.816c-73.103 0-132.060-59.023-132.060-132.060v0zM0 794.908c0 91.178 73.644 165.092 165.092 165.092h693.816c91.178 0 165.092-73.644 165.092-165.092v-693.816c0-91.178-73.644-165.092-165.092-165.092h-693.816c-91.178 0-165.092 73.644-165.092 165.092v693.816zM526.933 746.667c-104.533 0-197.12-59.733-244.907-150.905l-68.693 72.309v-204.351h194.133l-83.627 88.028c38.827 78.596 113.493 132.042 203.093 132.042 122.453 0 224-106.891 224-235.789s-101.547-235.789-224-235.789c-98.56 0-179.2 66.021-212.053 157.193h-62.72c32.853-125.754 143.36-220.070 274.773-220.070 158.293 0 283.733 135.186 283.733 298.667s-128.427 298.667-283.733 298.667z" />
<glyph unicode="&#xe6bc;" d="M537.6 960c-179.2 0-337.92-102.4-419.84-258.695l-117.76 123.958v-350.316h332.8l-143.36 150.905c66.56 134.737 194.56 226.358 348.16 226.358 209.92 0 384-183.242 384-404.211s-174.080-404.211-384-404.211c-168.96 0-307.2 113.179-363.52 269.474h-107.52c56.32-215.579 245.76-377.263 471.040-377.263 271.36 0 486.4 231.747 486.4 512s-220.16 512-486.4 512v0z" />
<glyph unicode="&#xe6bd;" d="M512-64c-282.77 0-512 229.23-512 512s229.23 512 512 512c282.77 0 512-229.23 512-512s-229.23-512-512-512zM654.222 704h-341.333c-31.289 0-56.889-25.6-56.889-56.889v-398.222c0-31.289 25.6-56.889 56.889-56.889h398.222c31.289 0 56.889 25.6 56.889 56.889v341.333l-113.778 113.778zM512 248.889c-48.356 0-85.333 36.978-85.333 85.333s36.978 85.333 85.333 85.333c48.356 0 85.333-36.978 85.333-85.333s-36.978-85.333-85.333-85.333v0zM597.333 533.333h-284.444v113.778h284.444v-113.778z" />
<glyph unicode="&#xe6be;" d="M512-64c282.77 0 512 229.23 512 512s-229.23 512-512 512c-282.77 0-512-229.23-512-512s229.23-512 512-512v0zM512-23.040c-260.148 0-471.040 210.892-471.040 471.040s210.892 471.040 471.040 471.040c260.148 0 471.040-210.892 471.040-471.040s-210.892-471.040-471.040-471.040zM648.533 708.096h-327.68c-37.955 0-68.949-30.994-68.949-68.949v-382.293c0-37.955 30.994-68.949 68.949-68.949h382.293c37.955 0 68.949 30.994 68.949 68.949v333.618l-117.625 117.625h-5.938zM648.533 679.424l-10.137 4.199 109.227-109.227-4.199 10.137v-327.68c0-22.12-18.158-40.277-40.277-40.277h-382.293c-22.12 0-40.277 18.158-40.277 40.277v382.293c0 22.12 18.158 40.277 40.277 40.277h327.68zM512 271.189v-28.672c-54.339 0-96.256 41.917-96.256 96.256s41.917 96.256 96.256 96.256c54.339 0 96.256-41.917 96.256-96.256s-41.917-96.256-96.256-96.256v28.672c38.504 0 67.584 29.080 67.584 67.584s-29.080 67.584-67.584 67.584c-38.504 0-67.584-29.080-67.584-67.584s29.080-67.584 67.584-67.584zM593.92 544.256v-28.672h-287.403v137.899h301.739v-123.563h-28.672v109.227l14.336-14.336h-273.067l14.336 14.336v-109.227l-14.336 14.336h273.067z" />
<glyph unicode="&#xe6bf;" d="M0 746.582c0 117.867 95.416 213.418 213.418 213.418h597.165c117.867 0 213.418-95.416 213.418-213.418v-597.165c0-117.867-95.416-213.418-213.418-213.418h-597.165c-117.867 0-213.418 95.416-213.418 213.418v597.165zM654.222 704h-341.333c-31.289 0-56.889-25.6-56.889-56.889v-398.222c0-31.289 25.6-56.889 56.889-56.889h398.222c31.289 0 56.889 25.6 56.889 56.889v341.333l-113.778 113.778zM512 248.889c-48.356 0-85.333 36.978-85.333 85.333s36.978 85.333 85.333 85.333c48.356 0 85.333-36.978 85.333-85.333s-36.978-85.333-85.333-85.333v0zM597.333 533.333h-284.444v113.778h284.444v-113.778z" />
</font>
</defs>
</svg>
